<?xml version="1.0" encoding="UTF-8" standalone="no"?>
<!-- Created with Inkscape (http://www.inkscape.org/) -->

<svg
   xmlns:dc="http://purl.org/dc/elements/1.1/"
   xmlns:cc="http://creativecommons.org/ns#"
   xmlns:rdf="http://www.w3.org/1999/02/22-rdf-syntax-ns#"
   xmlns:svg="http://www.w3.org/2000/svg"
   xmlns="http://www.w3.org/2000/svg"
   xmlns:sodipodi="http://sodipodi.sourceforge.net/DTD/sodipodi-0.dtd"
   xmlns:inkscape="http://www.inkscape.org/namespaces/inkscape"
   width="75"
   height="75"
   viewBox="0 0 75 75"
   id="svg7358"
   version="1.1"
   inkscape:version="0.91 r13725"
   sodipodi:docname="chancesnow.svg">
  <defs
     id="defs7360" />
  <sodipodi:namedview
     id="base"
     pagecolor="#001433"
     bordercolor="#666666"
     borderopacity="1.0"
     inkscape:pageopacity="1"
     inkscape:pageshadow="2"
     inkscape:zoom="1.4"
     inkscape:cx="145.84477"
     inkscape:cy="73.321223"
     inkscape:document-units="px"
     inkscape:current-layer="layer1"
     showgrid="false"
     units="px"
     inkscape:window-width="1366"
     inkscape:window-height="706"
     inkscape:window-x="-8"
     inkscape:window-y="-8"
     inkscape:window-maximized="1" />
  <metadata
     id="metadata7363">
    <rdf:RDF>
      <cc:Work
         rdf:about="">
        <dc:format>image/svg+xml</dc:format>
        <dc:type
           rdf:resource="http://purl.org/dc/dcmitype/StillImage" />
        <dc:title></dc:title>
      </cc:Work>
    </rdf:RDF>
  </metadata>
  <g
     inkscape:label="Layer 1"
     inkscape:groupmode="layer"
     id="layer1"
     transform="translate(0,-977.36216)">
    <g
       id="g12779"
       transform="translate(-126.07143,-78.214274)">
      <g
         id="g5778"
         transform="matrix(1.25,0,0,-1.25,186.0183,1082.0995)">
        <path
           d="m 0,0 c 0.146,0.802 0.225,1.615 0.225,2.434 0,7.375 -5.999,13.367 -13.367,13.367 -4.534,0 -8.702,-2.271 -11.16,-6.009 -1.156,0.497 -2.398,0.758 -3.652,0.758 -5.115,0 -9.268,-4.159 -9.268,-9.266 0,-0.101 0.006,-0.202 0.006,-0.306 -4.123,-1.349 -7.003,-5.247 -7.003,-9.68 0,-5.615 4.565,-10.183 10.182,-10.183 l 5.023,0 c 1.587,0 1.504,2.648 0,2.648 l -5.023,0 c -4.153,0 -7.537,3.382 -7.537,7.535 0,3.581 2.544,6.693 6.052,7.39 l 1.252,0.254 -0.204,1.259 c -0.068,0.398 -0.099,0.747 -0.099,1.083 0,3.649 2.97,6.615 6.619,6.615 1.213,0 2.408,-0.345 3.455,-0.987 l 1.208,-0.741 0.657,1.248 c 1.867,3.542 5.501,5.736 9.492,5.736 5.907,0 10.716,-4.806 10.716,-10.721 0,-1.122 -0.178,-2.236 -0.521,-3.299 l -0.605,-1.861 2.058,0.135 c 0.103,0.008 0.21,0.01 0.316,0.01 3.763,0 6.835,-3.062 6.835,-6.823 0,-3.765 -3.072,-6.833 -6.835,-6.833 l -5.73,0 c -1.715,0 -1.979,-2.648 0,-2.648 l 5.73,0 0,0.003 c 5.23,0 9.482,4.252 9.482,9.478 C 8.304,-4.574 4.671,-0.581 0,0"
           style="fill:#ffffff;fill-opacity:1;fill-rule:nonzero;stroke:none"
           id="path5780"
           inkscape:connector-curvature="0" />
      </g>
      <g
         id="g5782"
         transform="matrix(1.25,0,0,-1.25,163.54142,1112.8771)">
        <path
           d="m 0,0 c -0.935,-0.003 -1.694,0.751 -1.696,1.682 -0.009,0.936 0.751,1.7 1.69,1.705 C 0.925,3.387 1.69,2.636 1.69,1.696 1.699,0.762 0.939,0.002 0,0 m 9.348,2.809 -5.082,-0.013 0,-0.009 C 4.159,3.202 3.994,3.598 3.774,3.957 L 6.055,6.253 C 6.476,6.679 6.476,7.363 6.052,7.785 5.625,8.206 4.94,8.202 4.515,7.775 L 2.235,5.481 C 1.876,5.698 1.48,5.864 1.071,5.964 l -0.022,5.082 c 0,0.6 -0.487,1.085 -1.091,1.079 -0.592,-0.002 -1.086,-0.487 -1.074,-1.087 L -1.104,5.956 C -1.521,5.853 -1.907,5.687 -2.266,5.47 l -2.173,2.155 c -0.423,0.426 -1.109,0.423 -1.535,0 -0.422,-0.427 -0.422,-1.114 0,-1.534 l 2.177,-2.163 0.005,0.006 c -0.216,-0.362 -0.384,-0.757 -0.49,-1.181 0.008,0.003 0.008,0.006 0.008,0.006 L -9.36,2.745 c -0.598,0 -1.081,-0.491 -1.075,-1.093 0,-0.598 0.485,-1.08 1.084,-1.078 l 5.08,0.023 0,0.005 c 0.109,-0.417 0.274,-0.813 0.49,-1.172 l -2.28,-2.294 c -0.422,-0.424 -0.42,-1.122 0.008,-1.54 0.208,-0.21 0.489,-0.314 0.769,-0.314 0.276,0.007 0.55,0.11 0.763,0.32 l 2.28,2.297 c 0.359,-0.215 0.755,-0.376 1.17,-0.48 l 0.019,-5.081 c 0,-0.603 0.49,-1.083 1.083,-1.08 0.602,0 1.084,0.485 1.082,1.085 l -0.014,5.088 c 0.415,0.103 0.813,0.274 1.17,0.487 l -0.003,0 2.168,-2.159 c 0.212,-0.216 0.491,-0.316 0.768,-0.316 0.277,0 0.555,0.109 0.769,0.323 0.423,0.426 0.42,1.106 -0.003,1.533 l -2.177,2.154 c 0,0 0,-0.003 -0.005,-0.003 0.216,0.361 0.378,0.754 0.485,1.172 l 5.083,0.02 c 0.592,0.005 1.084,0.488 1.075,1.091 0,0.594 -0.485,1.082 -1.081,1.076"
           style="fill:#71b7d3;fill-opacity:1;fill-rule:nonzero;stroke:none"
           id="path5784"
           inkscape:connector-curvature="0" />
      </g>
    </g>
  </g>
</svg>
