<?xml version="1.0" encoding="UTF-8" standalone="no"?>
<!-- Created with Inkscape (http://www.inkscape.org/) -->

<svg
   xmlns:dc="http://purl.org/dc/elements/1.1/"
   xmlns:cc="http://creativecommons.org/ns#"
   xmlns:rdf="http://www.w3.org/1999/02/22-rdf-syntax-ns#"
   xmlns:svg="http://www.w3.org/2000/svg"
   xmlns="http://www.w3.org/2000/svg"
   xmlns:sodipodi="http://sodipodi.sourceforge.net/DTD/sodipodi-0.dtd"
   xmlns:inkscape="http://www.inkscape.org/namespaces/inkscape"
   width="75"
   height="75"
   viewBox="0 0 75 75"
   id="svg7358"
   version="1.1"
   inkscape:version="0.91 r13725"
   sodipodi:docname="chancerain.svg">
  <defs
     id="defs7360" />
  <sodipodi:namedview
     id="base"
     pagecolor="#001433"
     bordercolor="#666666"
     borderopacity="1.0"
     inkscape:pageopacity="1"
     inkscape:pageshadow="2"
     inkscape:zoom="1.4"
     inkscape:cx="145.84477"
     inkscape:cy="73.321223"
     inkscape:document-units="px"
     inkscape:current-layer="layer1"
     showgrid="false"
     units="px"
     inkscape:window-width="1366"
     inkscape:window-height="706"
     inkscape:window-x="-8"
     inkscape:window-y="-8"
     inkscape:window-maximized="1" />
  <metadata
     id="metadata7363">
    <rdf:RDF>
      <cc:Work
         rdf:about="">
        <dc:format>image/svg+xml</dc:format>
        <dc:type
           rdf:resource="http://purl.org/dc/dcmitype/StillImage" />
        <dc:title></dc:title>
      </cc:Work>
    </rdf:RDF>
  </metadata>
  <g
     inkscape:label="Layer 1"
     inkscape:groupmode="layer"
     id="layer1"
     transform="translate(0,-977.36216)">
    <g
       id="g12893"
       transform="translate(-100.35715,-71.071415)">
      <g
         id="g5642"
         transform="matrix(1.25,0,0,-1.25,160.30402,1075.9197)">
        <path
           d="m 0,0 c 0.146,0.797 0.225,1.619 0.225,2.438 0,7.373 -5.999,13.365 -13.367,13.365 -4.534,0 -8.702,-2.275 -11.16,-6.01 -1.156,0.5 -2.398,0.752 -3.652,0.752 -5.115,0 -9.268,-4.149 -9.268,-9.262 0,-0.101 0,-0.2 0.006,-0.304 -4.123,-1.354 -7.003,-5.25 -7.003,-9.676 0,-5.618 4.565,-10.19 10.182,-10.19 l 5.023,0 c 1.587,0 1.504,2.651 0,2.651 l -5.023,0 c -4.153,0 -7.537,3.382 -7.537,7.539 0,3.58 2.544,6.684 6.052,7.388 l 1.252,0.252 -0.204,1.259 c -0.068,0.396 -0.099,0.749 -0.099,1.081 0,3.646 2.97,6.615 6.619,6.615 1.213,0 2.408,-0.34 3.455,-0.985 l 1.208,-0.743 0.657,1.251 c 1.867,3.539 5.501,5.731 9.492,5.731 5.907,0 10.716,-4.805 10.716,-10.714 0,-1.125 -0.178,-2.236 -0.521,-3.306 l -0.605,-1.86 2.058,0.14 c 0.103,0.003 0.21,0.012 0.316,0.012 3.763,0 6.835,-3.063 6.835,-6.831 0,-3.764 -3.072,-6.829 -6.835,-6.829 l -5.73,0 c -1.715,0 -1.979,-2.651 0,-2.651 l 5.73,0 c 5.23,0 9.482,4.254 9.482,9.48 C 8.304,-4.576 4.671,-0.58 0,0"
           style="fill:#ffffff;fill-opacity:1;fill-rule:nonzero;stroke:none"
           id="path5644"
           inkscape:connector-curvature="0" />
      </g>
      <g
         id="g5646"
         transform="matrix(1.25,0,0,-1.25,127.78076,1103.8152)">
        <path
           d="M 0,0 C -0.259,0 -0.527,0.081 -0.764,0.241 -1.362,0.665 -1.501,1.492 -1.08,2.087 L 1.359,5.553 C 1.779,6.15 2.608,6.296 3.202,5.873 3.806,5.451 3.945,4.628 3.527,4.024 L 1.085,0.563 C 0.824,0.196 0.421,0 0,0"
           style="fill:#1b86d0;fill-opacity:1;fill-rule:nonzero;stroke:none"
           id="path5648"
           inkscape:connector-curvature="0" />
      </g>
      <g
         id="g5650"
         transform="matrix(1.25,0,0,-1.25,135.08914,1103.8152)">
        <path
           d="M 0,0 C -0.264,0 -0.533,0.081 -0.769,0.241 -1.363,0.665 -1.511,1.492 -1.092,2.087 L 1.354,5.553 C 1.775,6.15 2.605,6.296 3.202,5.873 3.8,5.451 3.942,4.628 3.522,4.024 L 1.08,0.563 C 0.824,0.196 0.412,0 0,0"
           style="fill:#1b86d0;fill-opacity:1;fill-rule:nonzero;stroke:none"
           id="path5652"
           inkscape:connector-curvature="0" />
      </g>
      <g
         id="g5654"
         transform="matrix(1.25,0,0,-1.25,142.39139,1103.8152)">
        <path
           d="M 0,0 C -0.261,0 -0.533,0.081 -0.764,0.241 -1.36,0.665 -1.507,1.492 -1.086,2.087 l 2.44,3.466 C 1.779,6.15 2.608,6.296 3.202,5.873 3.799,5.451 3.945,4.628 3.522,4.024 L 1.082,0.563 C 0.824,0.196 0.412,0 0,0"
           style="fill:#1b86d0;fill-opacity:1;fill-rule:nonzero;stroke:none"
           id="path5656"
           inkscape:connector-curvature="0" />
      </g>
      <g
         id="g5658"
         transform="matrix(1.25,0,0,-1.25,119.97814,1115.7012)">
        <path
           d="m 0,0 c -0.264,0 -0.528,0.078 -0.764,0.243 -0.594,0.421 -0.74,1.248 -0.313,1.849 L 1.356,5.553 C 1.777,6.147 2.607,6.289 3.208,5.868 3.805,5.451 3.948,4.624 3.527,4.023 L 1.085,0.558 C 0.829,0.195 0.417,0 0,0"
           style="fill:#1b86d0;fill-opacity:1;fill-rule:nonzero;stroke:none"
           id="path5660"
           inkscape:connector-curvature="0" />
      </g>
      <g
         id="g5662"
         transform="matrix(1.25,0,0,-1.25,127.28639,1115.7012)">
        <path
           d="M 0,0 C -0.267,0 -0.536,0.078 -0.766,0.243 -1.36,0.664 -1.507,1.491 -1.086,2.092 L 1.357,5.553 C 1.778,6.147 2.605,6.289 3.203,5.868 3.8,5.451 3.942,4.624 3.52,4.023 L 1.079,0.558 C 0.827,0.195 0.417,0 0,0"
           style="fill:#1b86d0;fill-opacity:1;fill-rule:nonzero;stroke:none"
           id="path5664"
           inkscape:connector-curvature="0" />
      </g>
      <g
         id="g5666"
         transform="matrix(1.25,0,0,-1.25,134.58139,1115.7012)">
        <path
           d="M 0,0 C -0.258,0 -0.527,0.078 -0.761,0.243 -1.357,0.664 -1.498,1.491 -1.074,2.092 L 1.362,5.553 C 1.783,6.147 2.608,6.289 3.207,5.868 3.805,5.451 3.948,4.624 3.527,4.023 L 1.091,0.558 C 0.827,0.195 0.421,0 0,0"
           style="fill:#1b86d0;fill-opacity:1;fill-rule:nonzero;stroke:none"
           id="path5668"
           inkscape:connector-curvature="0" />
      </g>
    </g>
  </g>
</svg>
