<?xml version="1.0" encoding="UTF-8" standalone="no"?>
<!-- Created with Inkscape (http://www.inkscape.org/) -->

<svg
   xmlns:dc="http://purl.org/dc/elements/1.1/"
   xmlns:cc="http://creativecommons.org/ns#"
   xmlns:rdf="http://www.w3.org/1999/02/22-rdf-syntax-ns#"
   xmlns:svg="http://www.w3.org/2000/svg"
   xmlns="http://www.w3.org/2000/svg"
   xmlns:sodipodi="http://sodipodi.sourceforge.net/DTD/sodipodi-0.dtd"
   xmlns:inkscape="http://www.inkscape.org/namespaces/inkscape"
   width="75"
   height="75"
   viewBox="0 0 75 75"
   id="svg7358"
   version="1.1"
   inkscape:version="0.91 r13725"
   sodipodi:docname="chancesleet.svg">
  <defs
     id="defs7360" />
  <sodipodi:namedview
     id="base"
     pagecolor="#001433"
     bordercolor="#666666"
     borderopacity="1.0"
     inkscape:pageopacity="1"
     inkscape:pageshadow="2"
     inkscape:zoom="1.4"
     inkscape:cx="145.84477"
     inkscape:cy="73.321223"
     inkscape:document-units="px"
     inkscape:current-layer="layer1"
     showgrid="false"
     units="px"
     inkscape:window-width="1366"
     inkscape:window-height="706"
     inkscape:window-x="-8"
     inkscape:window-y="-8"
     inkscape:window-maximized="1" />
  <metadata
     id="metadata7363">
    <rdf:RDF>
      <cc:Work
         rdf:about="">
        <dc:format>image/svg+xml</dc:format>
        <dc:type
           rdf:resource="http://purl.org/dc/dcmitype/StillImage" />
        <dc:title></dc:title>
      </cc:Work>
    </rdf:RDF>
  </metadata>
  <g
     inkscape:label="Layer 1"
     inkscape:groupmode="layer"
     id="layer1"
     transform="translate(0,-977.36216)">
    <g
       id="g12827"
       transform="translate(-136.07142,-78.214265)">
      <g
         id="g5758"
         transform="matrix(1.25,0,0,-1.25,196.0258,1081.3554)">
        <path
           d="m 0,0 c 0.141,0.801 0.213,1.618 0.213,2.437 0,7.37 -5.992,13.371 -13.363,13.371 -4.535,0 -8.704,-2.28 -11.159,-6.018 -1.155,0.501 -2.397,0.76 -3.656,0.76 -5.106,0 -9.263,-4.159 -9.263,-9.266 0,-0.098 0.006,-0.202 0.006,-0.308 -4.128,-1.355 -7.003,-5.242 -7.003,-9.679 0,-5.613 4.566,-10.183 10.183,-10.183 l 5.022,0 c 1.587,0 1.498,2.645 0,2.645 l -5.022,0 c -4.156,0 -7.539,3.379 -7.539,7.538 0,3.582 2.55,6.689 6.053,7.391 l 1.257,0.252 -0.211,1.259 c -0.065,0.401 -0.096,0.751 -0.096,1.085 0,3.647 2.97,6.615 6.613,6.615 1.217,0 2.415,-0.34 3.461,-0.986 l 1.205,-0.743 0.659,1.253 c 1.866,3.536 5.499,5.735 9.49,5.735 5.909,0 10.715,-4.815 10.715,-10.721 0,-1.127 -0.173,-2.238 -0.518,-3.307 l -0.607,-1.856 2.056,0.135 c 0.105,0.005 0.214,0.014 0.32,0.014 3.766,0 6.832,-3.06 6.832,-6.835 0,-3.761 -3.066,-6.825 -6.832,-6.829 l -5.729,0 c -1.717,0 -1.983,-2.645 0,-2.645 l 5.729,0 c 5.23,0 9.482,4.252 9.482,9.474 C 8.298,-4.577 4.666,-0.581 0,0"
           style="fill:#ffffff;fill-opacity:1;fill-rule:nonzero;stroke:none"
           id="path5760"
           inkscape:connector-curvature="0" />
      </g>
      <g
         id="g5762"
         transform="matrix(1.25,0,0,-1.25,165.68155,1109.0629)">
        <path
           d="M 0,0 C -0.162,0 -0.333,0.043 -0.484,0.12 -1.009,0.39 -1.203,1.029 -0.938,1.551 L 2.521,8.186 C 2.794,8.707 3.437,8.908 3.946,8.637 4.468,8.371 4.676,7.724 4.403,7.212 L 0.942,0.572 C 0.753,0.205 0.388,0 0,0"
           style="fill:#71b7d3;fill-opacity:1;fill-rule:nonzero;stroke:none"
           id="path5764"
           inkscape:connector-curvature="0" />
      </g>
      <g
         id="g5766"
         transform="matrix(1.25,0,0,-1.25,171.4908,1117.8446)">
        <path
           d="M 0,0 C -0.157,0 -0.317,0.04 -0.474,0.115 -0.992,0.382 -1.2,1.016 -0.939,1.54 L 5.974,15.2 c 0.271,0.528 0.903,0.734 1.429,0.471 0.522,-0.264 0.727,-0.902 0.46,-1.422 L 0.953,0.584 C 0.766,0.214 0.396,0 0,0"
           style="fill:#71b7d3;fill-opacity:1;fill-rule:nonzero;stroke:none"
           id="path5768"
           inkscape:connector-curvature="0" />
      </g>
      <g
         id="g5770"
         transform="matrix(1.25,0,0,-1.25,165.06868,1114.8784)">
        <path
           d="M 0,0 -2.768,-0.926 -3.687,1.843 -0.928,2.768 0,0 Z"
           style="fill:#71b7d3;fill-opacity:1;fill-rule:nonzero;stroke:none"
           id="path5772"
           inkscape:connector-curvature="0" />
      </g>
      <g
         id="g5774"
         transform="matrix(1.25,0,0,-1.25,170.9793,1123.4037)">
        <path
           d="M 0,0 -2.765,-0.923 -3.686,1.845 -0.926,2.771 0,0 Z"
           style="fill:#71b7d3;fill-opacity:1;fill-rule:nonzero;stroke:none"
           id="path5776"
           inkscape:connector-curvature="0" />
      </g>
    </g>
  </g>
</svg>
