<?xml version="1.0" encoding="UTF-8" standalone="no"?>
<!-- Created with Inkscape (http://www.inkscape.org/) -->

<svg
   xmlns:dc="http://purl.org/dc/elements/1.1/"
   xmlns:cc="http://creativecommons.org/ns#"
   xmlns:rdf="http://www.w3.org/1999/02/22-rdf-syntax-ns#"
   xmlns:svg="http://www.w3.org/2000/svg"
   xmlns="http://www.w3.org/2000/svg"
   xmlns:sodipodi="http://sodipodi.sourceforge.net/DTD/sodipodi-0.dtd"
   xmlns:inkscape="http://www.inkscape.org/namespaces/inkscape"
   width="75"
   height="75"
   viewBox="0 0 75 75"
   id="svg7358"
   version="1.1"
   inkscape:version="0.91 r13725"
   sodipodi:docname="chanceflurries.svg">
  <defs
     id="defs7360" />
  <sodipodi:namedview
     id="base"
     pagecolor="#001433"
     bordercolor="#666666"
     borderopacity="1.0"
     inkscape:pageopacity="1"
     inkscape:pageshadow="2"
     inkscape:zoom="1.4"
     inkscape:cx="145.84477"
     inkscape:cy="73.321223"
     inkscape:document-units="px"
     inkscape:current-layer="layer1"
     showgrid="false"
     units="px"
     inkscape:window-width="1366"
     inkscape:window-height="706"
     inkscape:window-x="-8"
     inkscape:window-y="-8"
     inkscape:window-maximized="1" />
  <metadata
     id="metadata7363">
    <rdf:RDF>
      <cc:Work
         rdf:about="">
        <dc:format>image/svg+xml</dc:format>
        <dc:type
           rdf:resource="http://purl.org/dc/dcmitype/StillImage" />
        <dc:title></dc:title>
      </cc:Work>
    </rdf:RDF>
  </metadata>
  <g
     inkscape:label="Layer 1"
     inkscape:groupmode="layer"
     id="layer1"
     transform="translate(0,-977.36216)">
    <g
       id="g12951"
       transform="translate(-134.64285,-96.785682)">
      <g
         id="g5594"
         transform="matrix(1.25,0,0,-1.25,194.67598,1098.5024)">
        <path
           d="m 0,0 c 0.143,0.805 0.225,1.62 0.225,2.445 0,7.398 -6.02,13.414 -13.412,13.414 -4.553,0 -8.733,-2.282 -11.204,-6.03 -1.157,0.498 -2.399,0.756 -3.665,0.756 -5.126,0 -9.298,-4.172 -9.298,-9.297 0,-0.101 0.003,-0.203 0.003,-0.307 -4.133,-1.356 -7.028,-5.268 -7.028,-9.708 0,-5.641 4.585,-10.224 10.226,-10.224 l 5.033,0 c 1.602,0 1.513,2.66 0,2.66 l -5.033,0 c -4.172,0 -7.564,3.387 -7.564,7.564 0,3.588 2.554,6.711 6.071,7.413 l 1.26,0.25 -0.21,1.269 c -0.066,0.397 -0.098,0.754 -0.098,1.083 0,3.661 2.975,6.639 6.638,6.639 1.222,0 2.423,-0.342 3.471,-0.99 l 1.216,-0.744 0.66,1.254 c 1.868,3.55 5.517,5.753 9.522,5.753 5.923,0 10.752,-4.823 10.752,-10.755 0,-1.132 -0.18,-2.247 -0.52,-3.316 l -0.611,-1.868 2.065,0.138 c 0.105,0.006 0.21,0.02 0.323,0.02 3.776,0 6.854,-3.073 6.854,-6.858 0,-3.78 -3.078,-6.852 -6.854,-6.852 l -5.755,0 c -1.721,0 -1.983,-2.66 0,-2.66 l 5.755,0 c 5.24,0 9.504,4.269 9.504,9.512 C 8.326,-4.593 4.689,-0.581 0,0"
           style="fill:#ffffff;fill-opacity:1;fill-rule:nonzero;stroke:none"
           id="path5596"
           inkscape:connector-curvature="0" />
      </g>
      <g
         id="g5598"
         transform="matrix(1.25,0,0,-1.25,182.06847,1132.6699)">
        <path
           d="M 0,0 C 0.695,0.915 0.523,2.211 -0.384,2.912 -1.288,3.604 -2.592,3.433 -3.293,2.522 -3.985,1.618 -3.816,0.315 -2.903,-0.378 -2.004,-1.079 -0.698,-0.906 0,0"
           style="fill:#71b7d3;fill-opacity:1;fill-rule:nonzero;stroke:none"
           id="path5600"
           inkscape:connector-curvature="0" />
      </g>
      <g
         id="g5602"
         transform="matrix(1.25,0,0,-1.25,166.08223,1132.6699)">
        <path
           d="M 0,0 C 0.699,0.915 0.527,2.217 -0.378,2.912 -1.294,3.604 -2.595,3.433 -3.293,2.522 -3.988,1.618 -3.816,0.315 -2.911,-0.378 -1.995,-1.079 -0.695,-0.906 0,0"
           style="fill:#71b7d3;fill-opacity:1;fill-rule:nonzero;stroke:none"
           id="path5604"
           inkscape:connector-curvature="0" />
      </g>
      <g
         id="g5606"
         transform="matrix(1.25,0,0,-1.25,174.07535,1143.597)">
        <path
           d="M 0,0 C 0.695,0.908 0.523,2.205 -0.387,2.906 -1.297,3.604 -2.595,3.427 -3.29,2.519 -3.988,1.611 -3.811,0.308 -2.906,-0.387 -1.995,-1.085 -0.7,-0.914 0,0"
           style="fill:#71b7d3;fill-opacity:1;fill-rule:nonzero;stroke:none"
           id="path5608"
           inkscape:connector-curvature="0" />
      </g>
      <g
         id="g5610"
         transform="matrix(1.25,0,0,-1.25,174.07535,1121.7335)">
        <path
           d="M 0,0 C 0.695,0.913 0.523,2.213 -0.387,2.908 -1.297,3.605 -2.595,3.433 -3.29,2.521 -3.988,1.617 -3.811,0.316 -2.906,-0.379 -1.995,-1.078 -0.7,-0.909 0,0"
           style="fill:#71b7d3;fill-opacity:1;fill-rule:nonzero;stroke:none"
           id="path5612"
           inkscape:connector-curvature="0" />
      </g>
    </g>
  </g>
</svg>
