<?xml version="1.0" encoding="UTF-8" standalone="no"?>
<!-- Created with Inkscape (http://www.inkscape.org/) -->

<svg
   xmlns:dc="http://purl.org/dc/elements/1.1/"
   xmlns:cc="http://creativecommons.org/ns#"
   xmlns:rdf="http://www.w3.org/1999/02/22-rdf-syntax-ns#"
   xmlns:svg="http://www.w3.org/2000/svg"
   xmlns="http://www.w3.org/2000/svg"
   xmlns:sodipodi="http://sodipodi.sourceforge.net/DTD/sodipodi-0.dtd"
   xmlns:inkscape="http://www.inkscape.org/namespaces/inkscape"
   width="75"
   height="75"
   viewBox="0 0 75 75"
   id="svg7358"
   version="1.1"
   inkscape:version="0.91 r13725"
   sodipodi:docname="cloudy.svg">
  <defs
     id="defs7360" />
  <sodipodi:namedview
     id="base"
     pagecolor="#001433"
     bordercolor="#666666"
     borderopacity="1.0"
     inkscape:pageopacity="1"
     inkscape:pageshadow="2"
     inkscape:zoom="1.4"
     inkscape:cx="145.84477"
     inkscape:cy="73.321223"
     inkscape:document-units="px"
     inkscape:current-layer="layer1"
     showgrid="false"
     units="px"
     inkscape:window-width="1366"
     inkscape:window-height="706"
     inkscape:window-x="-8"
     inkscape:window-y="-8"
     inkscape:window-maximized="1" />
  <metadata
     id="metadata7363">
    <rdf:RDF>
      <cc:Work
         rdf:about="">
        <dc:format>image/svg+xml</dc:format>
        <dc:type
           rdf:resource="http://purl.org/dc/dcmitype/StillImage" />
        <dc:title></dc:title>
      </cc:Work>
    </rdf:RDF>
  </metadata>
  <g
     inkscape:label="Layer 1"
     inkscape:groupmode="layer"
     id="layer1"
     transform="translate(0,-977.36216)">
    <g
       transform="matrix(1.25,0,0,-1.25,25,1003.0609)"
       id="g5718">
      <path
         inkscape:connector-curvature="0"
         id="path5720"
         style="fill:#ffffff;fill-opacity:1;fill-rule:nonzero;stroke:none"
         d="m 0,0 c -3.648,0 -6.615,-2.971 -6.615,-6.611 0,-0.332 0.035,-0.686 0.098,-1.081 l 0.208,-1.265 -1.251,-0.25 c -3.507,-0.703 -6.056,-3.813 -6.056,-7.389 0,-4.158 3.387,-7.535 7.54,-7.535 l 32.857,0 c 3.768,0 6.836,3.063 6.836,6.828 0,3.764 -3.068,6.826 -6.836,6.826 -0.107,0 -0.219,-0.005 -0.324,-0.014 l -2.045,-0.137 0.596,1.861 c 0.347,1.066 0.519,2.18 0.519,3.306 0,5.91 -4.804,10.717 -10.707,10.717 -3.994,0 -7.63,-2.193 -9.49,-5.733 L 4.668,-1.73 3.465,-0.987 C 2.415,-0.342 1.213,0 0,0 m 26.781,-26.787 -32.857,0 c -5.616,0 -10.188,4.574 -10.188,10.191 0,4.428 2.882,8.323 7.008,9.678 -0.007,0.101 -0.008,0.205 -0.008,0.307 0,5.105 4.159,9.261 9.264,9.261 1.261,0 2.499,-0.257 3.652,-0.757 2.462,3.739 6.629,6.012 11.168,6.012 7.367,0 13.362,-5.989 13.362,-13.366 0,-0.818 -0.077,-1.633 -0.225,-2.435 4.672,-0.579 8.307,-4.583 8.307,-9.407 0,-5.226 -4.252,-9.484 -9.483,-9.484" />
    </g>
  </g>
</svg>
