<?xml version="1.0" encoding="UTF-8" standalone="no"?>
<!-- Created with Inkscape (http://www.inkscape.org/) -->

<svg
   xmlns:dc="http://purl.org/dc/elements/1.1/"
   xmlns:cc="http://creativecommons.org/ns#"
   xmlns:rdf="http://www.w3.org/1999/02/22-rdf-syntax-ns#"
   xmlns:svg="http://www.w3.org/2000/svg"
   xmlns="http://www.w3.org/2000/svg"
   xmlns:sodipodi="http://sodipodi.sourceforge.net/DTD/sodipodi-0.dtd"
   xmlns:inkscape="http://www.inkscape.org/namespaces/inkscape"
   width="300"
   height="200"
   viewBox="0 0 300.00001 199.99999"
   id="svg7384"
   version="1.1"
   inkscape:version="0.91 r13725"
   sodipodi:docname="example.svg">
  <defs
     id="defs7386" />
  <sodipodi:namedview
     id="base"
     pagecolor="#ffffff"
     bordercolor="#666666"
     borderopacity="1.0"
     inkscape:pageopacity="0.0"
     inkscape:pageshadow="2"
     inkscape:zoom="1"
     inkscape:cx="256.87547"
     inkscape:cy="197.66226"
     inkscape:document-units="px"
     inkscape:current-layer="layer1"
     showgrid="false"
     units="px"
     inkscape:window-width="1366"
     inkscape:window-height="706"
     inkscape:window-x="-8"
     inkscape:window-y="-8"
     inkscape:window-maximized="1" />
  <metadata
     id="metadata7389">
    <rdf:RDF>
      <cc:Work
         rdf:about="">
        <dc:format>image/svg+xml</dc:format>
        <dc:type
           rdf:resource="http://purl.org/dc/dcmitype/StillImage" />
        <dc:title></dc:title>
      </cc:Work>
    </rdf:RDF>
  </metadata>
  <g
     inkscape:label="Layer 1"
     inkscape:groupmode="layer"
     id="layer1"
     transform="translate(0,-852.36225)">
    <g
       id="g6010"
       transform="matrix(4.3828854,0,0,-4.3828854,149.4864,891.89362)">
      <path
         d="m 0,0 c -0.729,0 -1.323,0.59 -1.323,1.324 l 0,4.574 c 0,0.729 0.594,1.327 1.323,1.327 0.735,0 1.324,-0.598 1.324,-1.327 l 0,-4.574 C 1.324,0.59 0.735,0 0,0"
         style="fill:#f5a714;fill-opacity:1;fill-rule:nonzero;stroke:none"
         id="path6012"
         inkscape:connector-curvature="0" />
    </g>
    <g
       id="g6014"
       transform="matrix(4.3828854,0,0,-4.3828854,149.4864,1043.5018)">
      <path
         d="m 0,0 c -0.729,0 -1.323,0.595 -1.323,1.327 l 0,4.574 c 0,0.732 0.594,1.324 1.323,1.324 0.735,0 1.324,-0.592 1.324,-1.324 l 0,-4.574 C 1.324,0.595 0.735,0 0,0"
         style="fill:#f5a714;fill-opacity:1;fill-rule:nonzero;stroke:none"
         id="path6016"
         inkscape:connector-curvature="0" />
    </g>
    <g
       id="g6018"
       transform="matrix(4.3828854,0,0,-4.3828854,83.717244,957.67158)">
      <path
         d="m 0,0 -4.571,0 c -0.732,0 -1.326,0.592 -1.326,1.326 0,0.733 0.594,1.32 1.326,1.32 l 4.571,0 c 0.734,0 1.323,-0.587 1.323,-1.32 C 1.323,0.592 0.734,0 0,0"
         style="fill:#f5a714;fill-opacity:1;fill-rule:nonzero;stroke:none"
         id="path6020"
         inkscape:connector-curvature="0" />
    </g>
    <g
       id="g6022"
       transform="matrix(4.3828854,0,0,-4.3828854,235.32476,957.67158)">
      <path
         d="m 0,0 -4.573,0 c -0.736,0 -1.326,0.592 -1.326,1.324 0,0.729 0.59,1.322 1.326,1.322 L 0,2.646 C 0.729,2.646 1.318,2.053 1.318,1.324 1.318,0.592 0.729,0 0,0"
         style="fill:#f5a714;fill-opacity:1;fill-rule:nonzero;stroke:none"
         id="path6024"
         inkscape:connector-curvature="0" />
    </g>
    <g
       id="g6026"
       transform="matrix(4.3828854,0,0,-4.3828854,198.08735,910.69655)">
      <path
         d="m 0,0 c -0.337,0 -0.679,0.13 -0.937,0.388 -0.519,0.515 -0.519,1.355 0,1.87 l 3.24,3.237 c 0.515,0.518 1.35,0.518 1.873,0 C 4.688,4.978 4.688,4.136 4.167,3.62 L 0.938,0.388 C 0.678,0.13 0.338,0 0,0"
         style="fill:#f5a714;fill-opacity:1;fill-rule:nonzero;stroke:none"
         id="path6028"
         inkscape:connector-curvature="0" />
    </g>
    <g
       id="g6030"
       transform="matrix(4.3828854,0,0,-4.3828854,88.951745,1019.828)">
      <path
         d="m 0,0 c -0.342,0 -0.676,0.129 -0.934,0.387 -0.521,0.519 -0.521,1.357 -0.005,1.877 l 3.236,3.23 C 2.818,6.01 3.655,6.01 4.17,5.494 4.692,4.979 4.692,4.139 4.17,3.62 L 0.937,0.387 C 0.679,0.129 0.34,0 0,0"
         style="fill:#f5a714;fill-opacity:1;fill-rule:nonzero;stroke:none"
         id="path6032"
         inkscape:connector-curvature="0" />
    </g>
    <g
       id="g6034"
       transform="matrix(4.3828854,0,0,-4.3828854,212.28042,1018.9805)">
      <path
         d="m 0,0 c -0.345,0 -0.681,0.133 -0.936,0.391 l -3.24,3.235 c -0.518,0.517 -0.518,1.354 0,1.871 0.52,0.519 1.358,0.519 1.876,0 L 0.929,2.26 C 1.45,1.744 1.45,0.905 0.937,0.391 0.676,0.133 0.337,0 0,0"
         style="fill:#f5a714;fill-opacity:1;fill-rule:nonzero;stroke:none"
         id="path6036"
         inkscape:connector-curvature="0" />
    </g>
    <g
       id="g6038"
       transform="matrix(4.3828854,0,0,-4.3828854,103.13651,911.69375)">
      <path
         d="M 0,0 C -0.34,0 -0.676,0.127 -0.939,0.391 L -4.17,3.625 c -0.521,0.518 -0.521,1.354 0,1.869 0.517,0.516 1.355,0.516 1.871,0 L 0.934,2.261 C 1.456,1.742 1.456,0.904 0.934,0.391 0.676,0.127 0.34,0 0,0"
         style="fill:#f5a714;fill-opacity:1;fill-rule:nonzero;stroke:none"
         id="path6040"
         inkscape:connector-curvature="0" />
    </g>
    <g
       id="g6042"
       transform="matrix(4.3828854,0,0,-4.3828854,149.4864,903.35609)">
      <path
         d="m 0,0 c -6.11,0 -11.065,-4.956 -11.065,-11.066 0,-6.12 4.955,-11.069 11.065,-11.069 6.111,0 11.066,4.949 11.066,11.069 C 11.066,-4.956 6.111,0 0,0 m 0,-2.653 c 4.647,0 8.422,-3.772 8.422,-8.413 0,-4.641 -3.775,-8.421 -8.422,-8.421 -4.641,0 -8.416,3.78 -8.416,8.421 0,4.641 3.775,8.413 8.416,8.413"
         style="fill:#f5a714;fill-opacity:1;fill-rule:nonzero;stroke:none"
         id="path6044"
         inkscape:connector-curvature="0" />
    </g>
  </g>
</svg>
