<?xml version="1.0" encoding="UTF-8" standalone="no"?>
<!-- Created with Inkscape (http://www.inkscape.org/) -->

<svg
   xmlns:dc="http://purl.org/dc/elements/1.1/"
   xmlns:cc="http://creativecommons.org/ns#"
   xmlns:rdf="http://www.w3.org/1999/02/22-rdf-syntax-ns#"
   xmlns:svg="http://www.w3.org/2000/svg"
   xmlns="http://www.w3.org/2000/svg"
   xmlns:sodipodi="http://sodipodi.sourceforge.net/DTD/sodipodi-0.dtd"
   xmlns:inkscape="http://www.inkscape.org/namespaces/inkscape"
   width="75"
   height="75"
   viewBox="0 0 75 75"
   id="svg7358"
   version="1.1"
   inkscape:version="0.91 r13725"
   sodipodi:docname="flurries.svg">
  <defs
     id="defs7360" />
  <sodipodi:namedview
     id="base"
     pagecolor="#001433"
     bordercolor="#666666"
     borderopacity="1.0"
     inkscape:pageopacity="1"
     inkscape:pageshadow="2"
     inkscape:zoom="1.4"
     inkscape:cx="145.84477"
     inkscape:cy="73.321223"
     inkscape:document-units="px"
     inkscape:current-layer="layer1"
     showgrid="false"
     units="px"
     inkscape:window-width="1366"
     inkscape:window-height="706"
     inkscape:window-x="-8"
     inkscape:window-y="-8"
     inkscape:window-maximized="1" />
  <metadata
     id="metadata7363">
    <rdf:RDF>
      <cc:Work
         rdf:about="">
        <dc:format>image/svg+xml</dc:format>
        <dc:type
           rdf:resource="http://purl.org/dc/dcmitype/StillImage" />
        <dc:title></dc:title>
      </cc:Work>
    </rdf:RDF>
  </metadata>
  <g
     inkscape:label="Layer 1"
     inkscape:groupmode="layer"
     id="layer1"
     transform="translate(0,-977.36216)">
    <g
       id="g12707"
       transform="translate(-116.78571,-39.642868)">
      <g
         id="g5802"
         transform="matrix(1.25,0,0,-1.25,162.15196,1064.8756)">
        <path
           d="m 0,0 c 0.695,0.906 0.52,2.205 -0.379,2.902 -0.914,0.69 -2.205,0.52 -2.9,-0.386 C -3.975,1.613 -3.803,0.314 -2.891,-0.383 -1.988,-1.074 -0.691,-0.898 0,0"
           style="fill:#71b7d3;fill-opacity:1;fill-rule:nonzero;stroke:none"
           id="path5804"
           inkscape:connector-curvature="0" />
      </g>
      <g
         id="g5806"
         transform="matrix(1.25,0,0,-1.25,150.36484,1064.8756)">
        <path
           d="M 0,0 C 0.691,0.906 0.521,2.205 -0.387,2.902 -1.293,3.592 -2.588,3.422 -3.282,2.516 -3.978,1.613 -3.804,0.314 -2.898,-0.383 -1.996,-1.074 -0.697,-0.898 0,0"
           style="fill:#71b7d3;fill-opacity:1;fill-rule:nonzero;stroke:none"
           id="path5808"
           inkscape:connector-curvature="0" />
      </g>
      <g
         id="g5810"
         transform="matrix(1.25,0,0,-1.25,162.15196,1086.2647)">
        <path
           d="M 0,0 C 0.695,0.906 0.52,2.197 -0.379,2.896 -1.293,3.592 -2.584,3.418 -3.279,2.512 -3.975,1.607 -3.803,0.309 -2.891,-0.385 -1.988,-1.08 -0.691,-0.908 0,0"
           style="fill:#71b7d3;fill-opacity:1;fill-rule:nonzero;stroke:none"
           id="path5812"
           inkscape:connector-curvature="0" />
      </g>
      <g
         id="g5814"
         transform="matrix(1.25,0,0,-1.25,150.36484,1086.2647)">
        <path
           d="M 0,0 C 0.691,0.906 0.521,2.197 -0.387,2.896 -1.293,3.592 -2.588,3.418 -3.282,2.516 -3.978,1.607 -3.804,0.309 -2.898,-0.385 -1.996,-1.08 -0.697,-0.908 0,0"
           style="fill:#71b7d3;fill-opacity:1;fill-rule:nonzero;stroke:none"
           id="path5816"
           inkscape:connector-curvature="0" />
      </g>
      <g
         id="g5818"
         transform="matrix(1.25,0,0,-1.25,155.84096,1075.5665)">
        <path
           d="M 0,0 C 0.693,0.908 0.521,2.201 -0.385,2.895 -1.287,3.588 -2.582,3.418 -3.279,2.51 -3.975,1.604 -3.799,0.309 -2.895,-0.385 -1.992,-1.078 -0.693,-0.904 0,0"
           style="fill:#71b7d3;fill-opacity:1;fill-rule:nonzero;stroke:none"
           id="path5820"
           inkscape:connector-curvature="0" />
      </g>
      <g
         id="g5822"
         transform="matrix(1.25,0,0,-1.25,142.38521,1075.5665)">
        <path
           d="M 0,0 C 0.695,0.908 0.524,2.201 -0.387,2.895 -1.289,3.588 -2.587,3.418 -3.282,2.51 -3.974,1.604 -3.804,0.309 -2.901,-0.385 -1.995,-1.078 -0.695,-0.904 0,0"
           style="fill:#71b7d3;fill-opacity:1;fill-rule:nonzero;stroke:none"
           id="path5824"
           inkscape:connector-curvature="0" />
      </g>
      <g
         id="g5826"
         transform="matrix(1.25,0,0,-1.25,169.30534,1075.5665)">
        <path
           d="M 0,0 C 0.689,0.908 0.516,2.201 -0.389,2.895 -1.293,3.588 -2.584,3.418 -3.283,2.51 -3.977,1.604 -3.803,0.309 -2.898,-0.385 -1.996,-1.078 -0.699,-0.904 0,0"
           style="fill:#71b7d3;fill-opacity:1;fill-rule:nonzero;stroke:none"
           id="path5828"
           inkscape:connector-curvature="0" />
      </g>
      <g
         id="g5830"
         transform="matrix(1.25,0,0,-1.25,176.73696,1041.4845)">
        <path
           d="m 0,0 c 0.15,0.803 0.219,1.615 0.219,2.439 0,7.37 -5.99,13.364 -13.362,13.364 -4.529,0 -8.701,-2.274 -11.162,-6.01 -1.151,0.5 -2.393,0.756 -3.649,0.756 -5.109,0 -9.264,-4.156 -9.264,-9.266 l 0,-0.301 c -4.122,-1.361 -7.005,-5.252 -7.005,-9.679 0,-5.617 4.57,-10.19 10.191,-10.19 l 5.017,0 c 1.589,0 1.504,2.651 0,2.651 l -5.017,0 c -4.159,0 -7.537,3.381 -7.537,7.539 0,3.58 2.545,6.685 6.048,7.388 l 1.255,0.25 -0.207,1.264 c -0.07,0.393 -0.101,0.746 -0.101,1.078 0,3.645 2.971,6.615 6.62,6.615 1.219,0 2.407,-0.339 3.46,-0.988 l 1.208,-0.74 0.661,1.254 c 1.859,3.533 5.49,5.726 9.482,5.726 5.913,0 10.717,-4.806 10.717,-10.711 0,-1.128 -0.178,-2.24 -0.525,-3.308 l -0.6,-1.86 2.059,0.139 c 0.101,0.004 0.205,0.016 0.318,0.016 3.764,0 6.832,-3.065 6.832,-6.834 0,-3.76 -3.068,-6.828 -6.832,-6.828 l -5.732,0 c -1.719,0 -1.983,-2.651 0,-2.651 l 5.732,0 c 5.227,0 9.475,4.252 9.475,9.479 C 8.301,-4.578 4.672,-0.58 0,0"
           style="fill:#ffffff;fill-opacity:1;fill-rule:nonzero;stroke:none"
           id="path5832"
           inkscape:connector-curvature="0" />
      </g>
    </g>
  </g>
</svg>
