<?xml version="1.0" encoding="UTF-8" standalone="no"?>
<!-- Created with Inkscape (http://www.inkscape.org/) -->

<svg
   xmlns:dc="http://purl.org/dc/elements/1.1/"
   xmlns:cc="http://creativecommons.org/ns#"
   xmlns:rdf="http://www.w3.org/1999/02/22-rdf-syntax-ns#"
   xmlns:svg="http://www.w3.org/2000/svg"
   xmlns="http://www.w3.org/2000/svg"
   xmlns:sodipodi="http://sodipodi.sourceforge.net/DTD/sodipodi-0.dtd"
   xmlns:inkscape="http://www.inkscape.org/namespaces/inkscape"
   width="75"
   height="75"
   viewBox="0 0 75 75"
   id="svg7358"
   version="1.1"
   inkscape:version="0.91 r13725"
   sodipodi:docname="fog.svg">
  <defs
     id="defs7360" />
  <sodipodi:namedview
     id="base"
     pagecolor="#001433"
     bordercolor="#666666"
     borderopacity="1.0"
     inkscape:pageopacity="1"
     inkscape:pageshadow="2"
     inkscape:zoom="1.4"
     inkscape:cx="145.84477"
     inkscape:cy="73.321223"
     inkscape:document-units="px"
     inkscape:current-layer="layer1"
     showgrid="false"
     units="px"
     inkscape:window-width="1366"
     inkscape:window-height="706"
     inkscape:window-x="-8"
     inkscape:window-y="-8"
     inkscape:window-maximized="1" />
  <metadata
     id="metadata7363">
    <rdf:RDF>
      <cc:Work
         rdf:about="">
        <dc:format>image/svg+xml</dc:format>
        <dc:type
           rdf:resource="http://purl.org/dc/dcmitype/StillImage" />
        <dc:title></dc:title>
      </cc:Work>
    </rdf:RDF>
  </metadata>
  <g
     inkscape:label="Layer 1"
     inkscape:groupmode="layer"
     id="layer1"
     transform="translate(0,-977.36216)">
    <g
       id="g12993"
       transform="translate(-103.92857,-34.642822)">
      <g
         id="g6050"
         transform="matrix(1.25,0,0,-1.25,152.42099,1054.9905)">
        <path
           d="m 0,0 c -3.176,0 -6.103,0.902 -8.658,2.705 -7.161,5.054 -13.196,5.335 -19.577,0.914 -0.462,-0.316 -1.102,-0.204 -1.421,0.255 -0.317,0.466 -0.207,1.103 0.259,1.429 7.094,4.919 14.063,4.621 21.918,-0.926 C -1.31,0.024 5.813,2.498 10.713,5.348 11.196,5.625 11.825,5.462 12.108,4.975 12.393,4.483 12.231,3.857 11.742,3.574 7.644,1.196 3.661,0 0,0"
           style="fill:#ffffff;fill-opacity:1;fill-rule:nonzero;stroke:none"
           id="path6052"
           inkscape:connector-curvature="0" />
      </g>
      <g
         id="g6054"
         transform="matrix(1.25,0,0,-1.25,152.42099,1064.6707)">
        <path
           d="m 0,0 c -3.176,0 -6.103,0.9 -8.658,2.703 -7.161,5.055 -13.196,5.343 -19.577,0.916 -0.462,-0.32 -1.102,-0.205 -1.421,0.257 -0.317,0.466 -0.207,1.108 0.259,1.423 7.094,4.921 14.063,4.627 21.918,-0.926 C -1.316,0.023 5.813,2.502 10.713,5.34 11.204,5.626 11.825,5.458 12.108,4.979 12.393,4.482 12.231,3.859 11.742,3.573 7.644,1.197 3.661,0 0,0"
           style="fill:#ffffff;fill-opacity:1;fill-rule:nonzero;stroke:none"
           id="path6056"
           inkscape:connector-curvature="0" />
      </g>
      <g
         id="g6058"
         transform="matrix(1.25,0,0,-1.25,152.42099,1045.3104)">
        <path
           d="m 0,0 c -3.176,0 -6.103,0.9 -8.658,2.704 -7.161,5.056 -13.196,5.337 -19.577,0.915 -0.462,-0.324 -1.102,-0.203 -1.421,0.261 -0.317,0.462 -0.207,1.097 0.259,1.419 7.094,4.919 14.063,4.627 21.918,-0.92 C -1.316,0.022 5.813,2.5 10.713,5.346 11.204,5.626 11.825,5.461 12.108,4.973 12.393,4.482 12.231,3.859 11.742,3.573 7.644,1.197 3.661,0 0,0"
           style="fill:#ffffff;fill-opacity:1;fill-rule:nonzero;stroke:none"
           id="path6060"
           inkscape:connector-curvature="0" />
      </g>
    </g>
  </g>
</svg>
