<?xml version="1.0" encoding="UTF-8" standalone="no"?>
<!-- Created with Inkscape (http://www.inkscape.org/) -->

<svg
   xmlns:dc="http://purl.org/dc/elements/1.1/"
   xmlns:cc="http://creativecommons.org/ns#"
   xmlns:rdf="http://www.w3.org/1999/02/22-rdf-syntax-ns#"
   xmlns:svg="http://www.w3.org/2000/svg"
   xmlns="http://www.w3.org/2000/svg"
   xmlns:sodipodi="http://sodipodi.sourceforge.net/DTD/sodipodi-0.dtd"
   xmlns:inkscape="http://www.inkscape.org/namespaces/inkscape"
   width="75"
   height="75"
   viewBox="0 0 75 75"
   id="svg7358"
   version="1.1"
   inkscape:version="0.91 r13725"
   sodipodi:docname="mostlysunny.svg">
  <defs
     id="defs7360" />
  <sodipodi:namedview
     id="base"
     pagecolor="#001433"
     bordercolor="#666666"
     borderopacity="1.0"
     inkscape:pageopacity="1"
     inkscape:pageshadow="2"
     inkscape:zoom="1.4"
     inkscape:cx="145.84477"
     inkscape:cy="73.321223"
     inkscape:document-units="px"
     inkscape:current-layer="layer1"
     showgrid="false"
     units="px"
     inkscape:window-width="1366"
     inkscape:window-height="706"
     inkscape:window-x="-8"
     inkscape:window-y="-8"
     inkscape:window-maximized="1" />
  <metadata
     id="metadata7363">
    <rdf:RDF>
      <cc:Work
         rdf:about="">
        <dc:format>image/svg+xml</dc:format>
        <dc:type
           rdf:resource="http://purl.org/dc/dcmitype/StillImage" />
        <dc:title></dc:title>
      </cc:Work>
    </rdf:RDF>
  </metadata>
  <g
     inkscape:label="Layer 1"
     inkscape:groupmode="layer"
     id="layer1"
     transform="translate(0,-977.36216)">
    <g
       id="g13169"
       transform="translate(63.214286,51.78571)">
      <g
         id="g5890"
         transform="matrix(1.25,0,0,-1.25,-21.791971,941.00858)">
        <path
           d="m 0,0 c -0.734,0 -1.326,0.59 -1.326,1.326 l 0,4.961 c 0,0.731 0.592,1.322 1.326,1.322 0.728,0 1.324,-0.591 1.324,-1.322 l 0,-4.961 C 1.324,0.59 0.728,0 0,0"
           style="fill:#f5a714;fill-opacity:1;fill-rule:nonzero;stroke:none"
           id="path5892"
           inkscape:connector-curvature="0" />
      </g>
      <g
         id="g5894"
         transform="matrix(1.25,0,0,-1.25,-42.126351,961.39187)">
        <path
           d="m 0,0 -4.965,0 c -0.731,0 -1.322,0.592 -1.322,1.324 0,0.729 0.591,1.322 1.322,1.322 L 0,2.646 C 0.727,2.646 1.324,2.053 1.324,1.324 1.324,0.592 0.727,0 0,0"
           style="fill:#f5a714;fill-opacity:1;fill-rule:nonzero;stroke:none"
           id="path5896"
           inkscape:connector-curvature="0" />
      </g>
      <g
         id="g5898"
         transform="matrix(1.25,0,0,-1.25,4.7437793,961.39427)">
        <path
           d="m 0,0 -4.961,0 c -0.734,0 -1.329,0.594 -1.329,1.326 0,0.729 0.595,1.322 1.329,1.322 L 0,2.648 C 0.727,2.648 1.321,2.055 1.321,1.326 1.321,0.594 0.727,0 0,0"
           style="fill:#f5a714;fill-opacity:1;fill-rule:nonzero;stroke:none"
           id="path5900"
           inkscape:connector-curvature="0" />
      </g>
      <g
         id="g5902"
         transform="matrix(1.25,0,0,-1.25,-6.7712207,946.86788)">
        <path
           d="m 0,0 c -0.339,0 -0.679,0.129 -0.933,0.387 -0.519,0.515 -0.519,1.355 0,1.873 l 3.502,3.504 c 0.522,0.519 1.358,0.519 1.873,0 0.519,-0.516 0.519,-1.356 0,-1.869 L 0.937,0.387 C 0.677,0.129 0.337,0 0,0"
           style="fill:#f5a714;fill-opacity:1;fill-rule:nonzero;stroke:none"
           id="path5904"
           inkscape:connector-curvature="0" />
      </g>
      <g
         id="g5906"
         transform="matrix(1.25,0,0,-1.25,-2.3827207,980.34447)">
        <path
           d="m 0,0 c -0.341,0 -0.681,0.125 -0.941,0.387 l -3.502,3.508 c -0.52,0.515 -0.52,1.353 0,1.873 0.515,0.519 1.347,0.519 1.869,0 L 0.932,2.256 C 1.45,1.744 1.45,0.902 0.932,0.387 0.674,0.125 0.34,0 0,0"
           style="fill:#f5a714;fill-opacity:1;fill-rule:nonzero;stroke:none"
           id="path5908"
           inkscape:connector-curvature="0" />
      </g>
      <g
         id="g5910"
         transform="matrix(1.25,0,0,-1.25,-36.129101,947.17808)">
        <path
           d="m 0,0 c -0.336,0 -0.676,0.131 -0.939,0.389 l -3.502,3.509 c -0.523,0.516 -0.523,1.352 0,1.87 0.518,0.517 1.348,0.517 1.873,0 L 0.937,2.262 C 1.45,1.742 1.45,0.91 0.937,0.389 0.673,0.131 0.335,0 0,0"
           style="fill:#f5a714;fill-opacity:1;fill-rule:nonzero;stroke:none"
           id="path5912"
           inkscape:connector-curvature="0" />
      </g>
      <g
         id="g5914"
         transform="matrix(1.25,0,0,-1.25,-44.794851,974.26057)">
        <path
           d="m 0,0 c -1.936,0 -3.514,-1.572 -3.514,-3.514 0,-0.174 0.023,-0.355 0.057,-0.566 l 0.208,-1.268 -1.26,-0.252 c -1.889,-0.377 -3.267,-2.056 -3.267,-3.994 0,-2.244 1.828,-4.072 4.075,-4.072 l 20.012,0 c 2.007,0 3.645,1.635 3.645,3.643 0,2.007 -1.638,3.644 -3.645,3.644 -0.057,0 -0.114,-0.006 -0.168,-0.01 l -1.967,-0.136 0.562,1.863 c 0.196,0.6 0.29,1.224 0.29,1.851 0,3.313 -2.694,6.014 -6.007,6.014 -2.24,0 -4.279,-1.236 -5.319,-3.217 L 3.043,-1.266 1.835,-0.523 C 1.282,-0.18 0.646,0 0,0 m 16.311,-16.316 -20.012,0 c -3.711,0 -6.722,3.021 -6.722,6.722 0,2.793 1.738,5.264 4.265,6.26 0.096,3.313 2.818,5.984 6.158,5.984 0.693,0 1.381,-0.121 2.031,-0.353 1.612,2.219 4.196,3.551 6.99,3.551 4.774,0 8.655,-3.885 8.655,-8.659 0,-0.353 -0.02,-0.709 -0.061,-1.058 2.84,-0.602 4.986,-3.133 4.986,-6.154 0,-3.469 -2.824,-6.293 -6.29,-6.293"
           style="fill:#ffffff;fill-opacity:1;fill-rule:nonzero;stroke:none"
           id="path5916"
           inkscape:connector-curvature="0" />
      </g>
      <g
         id="g5918"
         transform="matrix(1.25,0,0,-1.25,-6.7943507,959.73667)">
        <path
           d="m 0,0 c 0,6.629 -5.374,12 -11.998,12 -6.627,0 -12.006,-5.371 -12.006,-12 0,-0.687 0.063,-1.355 0.178,-2.008 0.044,-0.763 0.678,-1.351 1.419,-1.312 0.418,0.019 0.978,0.254 1.134,0.65 0.183,0.482 0.066,1.049 0,1.541 -0.054,0.377 -0.077,0.75 -0.077,1.129 0,5.154 4.195,9.352 9.352,9.352 5.154,0 9.348,-4.198 9.348,-9.352 0,-0.395 -0.063,-0.797 -0.11,-1.184 -0.051,-0.392 -0.112,-0.777 -0.197,-1.156 -0.176,-0.746 -0.457,-1.469 -0.83,-2.137 -0.367,-0.669 -0.818,-1.293 -1.331,-1.859 -0.506,-0.559 -1.085,-1.051 -1.726,-1.449 -0.664,-0.412 -1.379,-0.721 -2.096,-1.012 -0.295,-0.125 -0.629,-0.135 -0.915,-0.279 -0.272,-0.135 -0.499,-0.403 -0.614,-0.678 -0.07,-0.156 -0.104,-0.346 -0.104,-0.514 0,-0.744 0.616,-1.345 1.388,-1.357 0.006,0 0.011,-0.004 0.017,0 C -3.992,-10.596 0,-5.65 0,0"
           style="fill:#f5a714;fill-opacity:1;fill-rule:nonzero;stroke:none"
           id="path5920"
           inkscape:connector-curvature="0" />
      </g>
    </g>
  </g>
</svg>
