<?xml version="1.0" encoding="UTF-8" standalone="no"?>
<!-- Created with Inkscape (http://www.inkscape.org/) -->

<svg
   xmlns:dc="http://purl.org/dc/elements/1.1/"
   xmlns:cc="http://creativecommons.org/ns#"
   xmlns:rdf="http://www.w3.org/1999/02/22-rdf-syntax-ns#"
   xmlns:svg="http://www.w3.org/2000/svg"
   xmlns="http://www.w3.org/2000/svg"
   xmlns:sodipodi="http://sodipodi.sourceforge.net/DTD/sodipodi-0.dtd"
   xmlns:inkscape="http://www.inkscape.org/namespaces/inkscape"
   width="75"
   height="75"
   viewBox="0 0 75 75"
   id="svg7358"
   version="1.1"
   inkscape:version="0.91 r13725"
   sodipodi:docname="partlysunny.svg">
  <defs
     id="defs7360" />
  <sodipodi:namedview
     id="base"
     pagecolor="#001433"
     bordercolor="#666666"
     borderopacity="1.0"
     inkscape:pageopacity="1"
     inkscape:pageshadow="2"
     inkscape:zoom="1.4"
     inkscape:cx="145.84477"
     inkscape:cy="73.321223"
     inkscape:document-units="px"
     inkscape:current-layer="layer1"
     showgrid="false"
     units="px"
     inkscape:window-width="1366"
     inkscape:window-height="706"
     inkscape:window-x="-8"
     inkscape:window-y="-8"
     inkscape:window-maximized="1" />
  <metadata
     id="metadata7363">
    <rdf:RDF>
      <cc:Work
         rdf:about="">
        <dc:format>image/svg+xml</dc:format>
        <dc:type
           rdf:resource="http://purl.org/dc/dcmitype/StillImage" />
        <dc:title></dc:title>
      </cc:Work>
    </rdf:RDF>
  </metadata>
  <g
     inkscape:label="Layer 1"
     inkscape:groupmode="layer"
     id="layer1"
     transform="translate(0,-977.36216)">
    <g
       id="g13319"
       transform="translate(-145.35714,-87.50004)">
      <g
         id="g5862"
         transform="matrix(1.25,0,0,-1.25,195.8139,1078.5652)">
        <path
           d="m 0,0 c -0.677,0 -1.231,0.553 -1.231,1.229 l 0,3.396 c 0,0.673 0.554,1.226 1.231,1.226 0.671,0 1.221,-0.553 1.221,-1.226 l 0,-3.396 C 1.221,0.553 0.671,0 0,0"
           style="fill:#f5a714;fill-opacity:1;fill-rule:nonzero;stroke:none"
           id="path5864"
           inkscape:connector-curvature="0" />
      </g>
      <g
         id="g5866"
         transform="matrix(1.25,0,0,-1.25,213.94864,1092.5081)">
        <path
           d="m 0,0 -3.393,0 c -0.676,0 -1.226,0.548 -1.226,1.224 0,0.678 0.55,1.227 1.226,1.227 L 0,2.451 C 0.675,2.451 1.231,1.902 1.231,1.224 1.231,0.548 0.675,0 0,0"
           style="fill:#f5a714;fill-opacity:1;fill-rule:nonzero;stroke:none"
           id="path5868"
           inkscape:connector-curvature="0" />
      </g>
      <g
         id="g5870"
         transform="matrix(1.25,0,0,-1.25,206.07515,1082.5801)">
        <path
           d="m 0,0 c -0.311,0 -0.628,0.116 -0.863,0.359 -0.481,0.48 -0.481,1.257 0,1.734 l 2.397,2.4 c 0.477,0.477 1.257,0.477 1.736,0 0.476,-0.482 0.476,-1.26 0,-1.738 L 0.869,0.359 C 0.634,0.116 0.316,0 0,0"
           style="fill:#f5a714;fill-opacity:1;fill-rule:nonzero;stroke:none"
           id="path5872"
           inkscape:connector-curvature="0" />
      </g>
      <g
         id="g5874"
         transform="matrix(1.25,0,0,-1.25,209.07189,1105.4597)">
        <path
           d="m 0,0 c -0.308,0 -0.629,0.117 -0.863,0.354 l -2.398,2.4 c -0.48,0.482 -0.48,1.256 0,1.738 0.48,0.477 1.254,0.477 1.733,0 l 2.4,-2.4 C 1.349,1.612 1.349,0.836 0.872,0.354 0.631,0.117 0.317,0 0,0"
           style="fill:#f5a714;fill-opacity:1;fill-rule:nonzero;stroke:none"
           id="path5876"
           inkscape:connector-curvature="0" />
      </g>
      <g
         id="g5878"
         transform="matrix(1.25,0,0,-1.25,186.01402,1082.7901)">
        <path
           d="m 0,0 c -0.318,0 -0.629,0.118 -0.869,0.358 l -2.399,2.401 c -0.477,0.477 -0.477,1.254 0,1.73 0.477,0.481 1.257,0.481 1.737,0 L 0.867,2.093 C 1.345,1.615 1.345,0.841 0.867,0.358 0.628,0.118 0.31,0 0,0"
           style="fill:#f5a714;fill-opacity:1;fill-rule:nonzero;stroke:none"
           id="path5880"
           inkscape:connector-curvature="0" />
      </g>
      <g
         id="g5882"
         transform="matrix(1.25,0,0,-1.25,168.71065,1103.2967)">
        <path
           d="m 0,0 c -3.216,0 -5.832,-2.613 -5.832,-5.83 0,-0.291 0.027,-0.604 0.084,-0.953 l 0.215,-1.262 -1.259,-0.254 c -3.102,-0.619 -5.345,-3.364 -5.345,-6.533 0,-3.671 2.979,-6.658 6.661,-6.658 l 29.609,0 c 3.32,0 6.024,2.704 6.024,6.027 0,3.323 -2.704,6.024 -6.024,6.024 -0.1,0 -0.199,-0.008 -0.303,-0.014 l -2.021,-0.143 0.603,1.867 c 0.31,0.948 0.466,1.94 0.466,2.936 0,5.256 -4.277,9.527 -9.528,9.527 -3.548,0 -6.779,-1.953 -8.432,-5.093 L 4.254,-1.613 3.045,-0.873 C 2.127,-0.297 1.075,0 0,0 m 24.133,-24.141 -29.609,0 c -5.132,0 -9.311,4.177 -9.311,9.309 0,4.021 2.591,7.551 6.309,8.816 0,0.063 -0.004,0.121 -0.004,0.186 0,4.672 3.808,8.48 8.482,8.48 1.113,0 2.217,-0.224 3.244,-0.65 2.243,3.351 6.011,5.387 10.106,5.387 6.714,0 12.177,-5.463 12.177,-12.18 0,-0.698 -0.059,-1.396 -0.185,-2.08 4.215,-0.596 7.464,-4.219 7.464,-8.59 0,-4.785 -3.889,-8.678 -8.673,-8.678"
           style="fill:#ffffff;fill-opacity:1;fill-rule:nonzero;stroke:none"
           id="path5884"
           inkscape:connector-curvature="0" />
      </g>
      <g
         id="g5886"
         transform="matrix(1.25,0,0,-1.25,197.71452,1081.1848)">
        <path
           d="m 0,0 c -4.164,0.764 -8.156,-1.994 -8.914,-6.158 -0.065,-0.358 -0.1,-0.707 -0.107,-1.055 -0.062,-0.516 0.339,-0.99 0.898,-1.054 1.051,-0.131 1.04,1.029 1.169,1.747 0.562,3.074 3.519,5.122 6.595,4.557 3.071,-0.564 5.122,-3.519 4.553,-6.59 -0.125,-0.705 -0.299,-1.393 -0.714,-1.994 -0.524,-0.749 -1.273,-1.347 -1.955,-1.792 -0.574,-0.381 -0.271,-1.284 0.421,-1.419 0.827,-0.171 1.495,0.435 2.089,0.971 0.721,0.647 1.265,1.5 1.655,2.381 0.212,0.473 0.375,0.984 0.471,1.494 C 6.922,-4.75 4.164,-0.757 0,0"
           style="fill:#f5a714;fill-opacity:1;fill-rule:nonzero;stroke:none"
           id="path5888"
           inkscape:connector-curvature="0" />
      </g>
    </g>
  </g>
</svg>
