<?xml version="1.0" encoding="UTF-8" standalone="no"?>
<!-- Created with Inkscape (http://www.inkscape.org/) -->

<svg
   xmlns:dc="http://purl.org/dc/elements/1.1/"
   xmlns:cc="http://creativecommons.org/ns#"
   xmlns:rdf="http://www.w3.org/1999/02/22-rdf-syntax-ns#"
   xmlns:svg="http://www.w3.org/2000/svg"
   xmlns="http://www.w3.org/2000/svg"
   xmlns:sodipodi="http://sodipodi.sourceforge.net/DTD/sodipodi-0.dtd"
   xmlns:inkscape="http://www.inkscape.org/namespaces/inkscape"
   width="75"
   height="75"
   viewBox="0 0 75 75"
   id="svg7358"
   version="1.1"
   inkscape:version="0.91 r13725"
   sodipodi:docname="rain.svg">
  <defs
     id="defs7360" />
  <sodipodi:namedview
     id="base"
     pagecolor="#001433"
     bordercolor="#666666"
     borderopacity="1.0"
     inkscape:pageopacity="1"
     inkscape:pageshadow="2"
     inkscape:zoom="1.4"
     inkscape:cx="145.84477"
     inkscape:cy="73.321223"
     inkscape:document-units="px"
     inkscape:current-layer="layer1"
     showgrid="false"
     units="px"
     inkscape:window-width="1366"
     inkscape:window-height="706"
     inkscape:window-x="-8"
     inkscape:window-y="-8"
     inkscape:window-maximized="1" />
  <metadata
     id="metadata7363">
    <rdf:RDF>
      <cc:Work
         rdf:about="">
        <dc:format>image/svg+xml</dc:format>
        <dc:type
           rdf:resource="http://purl.org/dc/dcmitype/StillImage" />
        <dc:title></dc:title>
      </cc:Work>
    </rdf:RDF>
  </metadata>
  <g
     inkscape:label="Layer 1"
     inkscape:groupmode="layer"
     id="layer1"
     transform="translate(0,-977.36216)">
    <g
       id="g13463"
       transform="translate(90.357143,56.78571)">
      <g
         id="g5722"
         transform="matrix(1.25,0,0,-1.25,-62.177893,991.00452)">
        <path
           d="m 0,0 c -0.174,0 -0.346,0.036 -0.519,0.108 -0.67,0.289 -0.987,1.061 -0.702,1.735 l 9.303,21.918 c 0.286,0.674 1.063,0.988 1.738,0.704 0.673,-0.289 0.991,-1.066 0.704,-1.741 L 1.22,0.808 C 1.007,0.306 0.517,0 0,0"
           style="fill:#1b86d0;fill-opacity:1;fill-rule:nonzero;stroke:none"
           id="path5724"
           inkscape:connector-curvature="0" />
      </g>
      <g
         id="g5726"
         transform="matrix(1.25,0,0,-1.25,-51.468638,983.75232)">
        <path
           d="m 0,0 c -0.168,0 -0.343,0.037 -0.511,0.104 -0.674,0.277 -0.999,1.051 -0.718,1.73 l 6.591,15.979 c 0.274,0.675 1.052,0.996 1.727,0.721 0.679,-0.278 0.998,-1.054 0.724,-1.727 L 1.223,0.818 C 1.012,0.314 0.518,0 0,0"
           style="fill:#1b86d0;fill-opacity:1;fill-rule:nonzero;stroke:none"
           id="path5728"
           inkscape:connector-curvature="0" />
      </g>
      <g
         id="g5730"
         transform="matrix(1.25,0,0,-1.25,-66.591893,983.75232)">
        <path
           d="m 0,0 c -0.171,0 -0.344,0.037 -0.507,0.104 -0.674,0.277 -0.999,1.051 -0.715,1.73 l 6.584,15.979 c 0.275,0.675 1.055,0.996 1.731,0.721 0.675,-0.278 0.999,-1.054 0.718,-1.727 L 1.224,0.818 C 1.016,0.314 0.521,0 0,0"
           style="fill:#1b86d0;fill-opacity:1;fill-rule:nonzero;stroke:none"
           id="path5732"
           inkscape:connector-curvature="0" />
      </g>
      <g
         id="g5734"
         transform="matrix(1.25,0,0,-1.25,-30.409018,944.90213)">
        <path
           d="m 0,0 c 0.148,0.805 0.227,1.618 0.227,2.441 0,7.367 -5.996,13.362 -13.365,13.362 -4.54,0 -8.702,-2.269 -11.164,-6.01 -1.152,0.5 -2.395,0.76 -3.651,0.76 -5.11,0 -9.26,-4.16 -9.26,-9.268 l 0,-0.306 c -4.123,-1.355 -7.011,-5.247 -7.011,-9.674 0,-5.62 4.575,-10.192 10.194,-10.192 l 5.016,0 c 1.597,0 1.507,2.653 0,2.653 l -5.016,0 c -4.159,0 -7.541,3.38 -7.541,7.539 0,3.574 2.546,6.685 6.052,7.386 l 1.253,0.252 -0.205,1.262 c -0.064,0.396 -0.094,0.746 -0.094,1.08 0,3.649 2.966,6.617 6.612,6.617 1.214,0 2.409,-0.343 3.461,-0.988 l 1.211,-0.741 0.654,1.251 c 1.864,3.535 5.498,5.729 9.489,5.729 5.911,0 10.715,-4.803 10.715,-10.712 0,-1.128 -0.18,-2.238 -0.521,-3.31 l -0.603,-1.857 2.053,0.135 c 0.106,0.008 0.216,0.018 0.322,0.018 3.764,0 6.829,-3.064 6.829,-6.829 0,-3.77 -3.065,-6.832 -6.829,-6.832 l -5.729,0 c -1.713,0 -1.986,-2.653 0,-2.653 l 5.729,0 c 5.228,0 9.479,4.255 9.479,9.485 C 8.307,-4.573 4.676,-0.574 0,0"
           style="fill:#ffffff;fill-opacity:1;fill-rule:nonzero;stroke:none"
           id="path5736"
           inkscape:connector-curvature="0" />
      </g>
    </g>
  </g>
</svg>
