<?xml version="1.0" encoding="UTF-8" standalone="no"?>
<!-- Created with Inkscape (http://www.inkscape.org/) -->

<svg
   xmlns:dc="http://purl.org/dc/elements/1.1/"
   xmlns:cc="http://creativecommons.org/ns#"
   xmlns:rdf="http://www.w3.org/1999/02/22-rdf-syntax-ns#"
   xmlns:svg="http://www.w3.org/2000/svg"
   xmlns="http://www.w3.org/2000/svg"
   xmlns:sodipodi="http://sodipodi.sourceforge.net/DTD/sodipodi-0.dtd"
   xmlns:inkscape="http://www.inkscape.org/namespaces/inkscape"
   width="75"
   height="75"
   viewBox="0 0 75 75"
   id="svg7358"
   version="1.1"
   inkscape:version="0.91 r13725"
   sodipodi:docname="sleet.svg">
  <defs
     id="defs7360" />
  <sodipodi:namedview
     id="base"
     pagecolor="#001433"
     bordercolor="#666666"
     borderopacity="1.0"
     inkscape:pageopacity="1"
     inkscape:pageshadow="2"
     inkscape:zoom="1.4"
     inkscape:cx="145.84477"
     inkscape:cy="73.321223"
     inkscape:document-units="px"
     inkscape:current-layer="layer1"
     showgrid="false"
     units="px"
     inkscape:window-width="1366"
     inkscape:window-height="706"
     inkscape:window-x="-8"
     inkscape:window-y="-8"
     inkscape:window-maximized="1" />
  <metadata
     id="metadata7363">
    <rdf:RDF>
      <cc:Work
         rdf:about="">
        <dc:format>image/svg+xml</dc:format>
        <dc:type
           rdf:resource="http://purl.org/dc/dcmitype/StillImage" />
        <dc:title></dc:title>
      </cc:Work>
    </rdf:RDF>
  </metadata>
  <g
     inkscape:label="Layer 1"
     inkscape:groupmode="layer"
     id="layer1"
     transform="translate(0,-977.36216)">
    <g
       id="g13527"
       transform="translate(69.642857,90.35714)">
      <g
         id="g5982"
         transform="matrix(1.25,0,0,-1.25,-45.410607,954.43064)">
        <path
           d="M 0,0 -2.771,-0.92 -3.696,1.84 -0.929,2.766 0,0 Z"
           style="fill:#71b7d3;fill-opacity:1;fill-rule:nonzero;stroke:none"
           id="path5984"
           inkscape:connector-curvature="0" />
      </g>
      <g
         id="g5986"
         transform="matrix(1.25,0,0,-1.25,-45.095732,948.51254)">
        <path
           d="m 0,0 c -0.146,0 -0.298,0.023 -0.445,0.09 -0.609,0.248 -0.904,0.943 -0.651,1.555 l 5.044,12.269 c 0.25,0.609 0.947,0.9 1.557,0.65 0.605,-0.253 0.894,-0.947 0.644,-1.558 L 1.11,0.74 C 0.915,0.277 0.471,0 0,0"
           style="fill:#71b7d3;fill-opacity:1;fill-rule:nonzero;stroke:none"
           id="path5988"
           inkscape:connector-curvature="0" />
      </g>
      <g
         id="g5990"
         transform="matrix(1.25,0,0,-1.25,-37.873982,954.74554)">
        <path
           d="M 0,0 -2.765,-0.924 -3.688,1.844 -0.923,2.77 0,0 Z"
           style="fill:#71b7d3;fill-opacity:1;fill-rule:nonzero;stroke:none"
           id="path5992"
           inkscape:connector-curvature="0" />
      </g>
      <g
         id="g5994"
         transform="matrix(1.25,0,0,-1.25,-37.545607,948.90574)">
        <path
           d="m 0,0 c -0.151,0 -0.305,0.027 -0.457,0.09 -0.602,0.248 -0.897,0.947 -0.647,1.553 l 5.048,12.269 c 0.249,0.611 0.942,0.901 1.553,0.647 C 6.105,14.313 6.4,13.615 6.15,13.004 L 1.101,0.738 C 0.909,0.277 0.466,0 0,0"
           style="fill:#71b7d3;fill-opacity:1;fill-rule:nonzero;stroke:none"
           id="path5996"
           inkscape:connector-curvature="0" />
      </g>
      <g
         id="g5998"
         transform="matrix(1.25,0,0,-1.25,-30.330107,954.74554)">
        <path
           d="M 0,0 -2.763,-0.924 -3.688,1.844 -0.923,2.77 0,0 Z"
           style="fill:#71b7d3;fill-opacity:1;fill-rule:nonzero;stroke:none"
           id="path6000"
           inkscape:connector-curvature="0" />
      </g>
      <g
         id="g6002"
         transform="matrix(1.25,0,0,-1.25,-30.007857,948.90574)">
        <path
           d="m 0,0 c -0.146,0 -0.303,0.027 -0.452,0.09 -0.609,0.248 -0.897,0.947 -0.647,1.553 l 5.047,12.269 c 0.246,0.611 0.942,0.901 1.554,0.647 0.605,-0.246 0.903,-0.944 0.648,-1.555 L 1.104,0.738 C 0.917,0.277 0.471,0 0,0"
           style="fill:#71b7d3;fill-opacity:1;fill-rule:nonzero;stroke:none"
           id="path6004"
           inkscape:connector-curvature="0" />
      </g>
      <g
         id="g6006"
         transform="matrix(1.25,0,0,-1.25,-9.6916072,912.86575)">
        <path
           d="m 0,0 c 0.146,0.807 0.22,1.617 0.22,2.439 0,7.368 -5.999,13.366 -13.366,13.366 -4.535,0 -8.703,-2.276 -11.165,-6.01 -1.151,0.498 -2.394,0.752 -3.648,0.752 -5.112,0 -9.268,-4.156 -9.268,-9.264 0,-0.097 0.006,-0.199 0.008,-0.303 -4.131,-1.357 -7.005,-5.248 -7.005,-9.681 0,-5.613 4.565,-10.188 10.186,-10.188 l 5.019,0 c 1.59,0 1.501,2.651 0,2.651 l -5.019,0 c -4.158,0 -7.544,3.379 -7.544,7.537 0,3.582 2.55,6.689 6.053,7.389 l 1.258,0.253 -0.208,1.26 c -0.069,0.401 -0.094,0.758 -0.094,1.082 0,3.649 2.964,6.617 6.614,6.617 1.213,0 2.406,-0.343 3.459,-0.986 l 1.202,-0.744 0.662,1.254 c 1.863,3.535 5.498,5.73 9.49,5.73 5.906,0 10.715,-4.806 10.715,-10.715 0,-1.125 -0.176,-2.238 -0.521,-3.306 l -0.603,-1.858 2.056,0.133 c 0.103,0.008 0.21,0.016 0.316,0.016 3.763,0 6.831,-3.061 6.831,-6.828 0,-3.764 -3.068,-6.834 -6.831,-6.834 l -5.731,0 c -1.717,0 -1.978,-2.651 0,-2.651 l 5.731,0 c 5.225,0 9.485,4.258 9.485,9.485 C 8.302,-4.578 4.667,-0.582 0,0"
           style="fill:#ffffff;fill-opacity:1;fill-rule:nonzero;stroke:none"
           id="path6008"
           inkscape:connector-curvature="0" />
      </g>
    </g>
  </g>
</svg>
