<?xml version="1.0" encoding="UTF-8" standalone="no"?>
<!-- Created with Inkscape (http://www.inkscape.org/) -->

<svg
   xmlns:dc="http://purl.org/dc/elements/1.1/"
   xmlns:cc="http://creativecommons.org/ns#"
   xmlns:rdf="http://www.w3.org/1999/02/22-rdf-syntax-ns#"
   xmlns:svg="http://www.w3.org/2000/svg"
   xmlns="http://www.w3.org/2000/svg"
   xmlns:sodipodi="http://sodipodi.sourceforge.net/DTD/sodipodi-0.dtd"
   xmlns:inkscape="http://www.inkscape.org/namespaces/inkscape"
   width="75"
   height="75"
   viewBox="0 0 75 75"
   id="svg7358"
   version="1.1"
   inkscape:version="0.91 r13725"
   sodipodi:docname="snow.svg">
  <defs
     id="defs7360" />
  <sodipodi:namedview
     id="base"
     pagecolor="#001433"
     bordercolor="#666666"
     borderopacity="1.0"
     inkscape:pageopacity="1"
     inkscape:pageshadow="2"
     inkscape:zoom="1.4"
     inkscape:cx="145.84477"
     inkscape:cy="73.321223"
     inkscape:document-units="px"
     inkscape:current-layer="layer1"
     showgrid="false"
     units="px"
     inkscape:window-width="1366"
     inkscape:window-height="706"
     inkscape:window-x="-8"
     inkscape:window-y="-8"
     inkscape:window-maximized="1" />
  <metadata
     id="metadata7363">
    <rdf:RDF>
      <cc:Work
         rdf:about="">
        <dc:format>image/svg+xml</dc:format>
        <dc:type
           rdf:resource="http://purl.org/dc/dcmitype/StillImage" />
        <dc:title></dc:title>
      </cc:Work>
    </rdf:RDF>
  </metadata>
  <g
     inkscape:label="Layer 1"
     inkscape:groupmode="layer"
     id="layer1"
     transform="translate(0,-977.36216)">
    <g
       transform="matrix(1.25,0,0,-1.25,60.795625,1013.6397)"
       id="g6046">
      <path
         inkscape:connector-curvature="0"
         id="path6048"
         style="fill:#71b7d3;fill-opacity:1;fill-rule:nonzero;stroke:none"
         d="m 0,0 -5.211,0 2.193,2.19 c 0.378,0.381 0.378,1 0,1.384 -0.386,0.385 -1.007,0.385 -1.388,0 L -7.982,0 l -8.287,0 5.861,5.861 5.057,0 c 0.539,0 0.978,0.437 0.978,0.984 0,0.536 -0.439,0.975 -0.978,0.975 l -3.099,0 3.687,3.682 c 0.382,0.389 0.382,1.005 0,1.39 -0.386,0.38 -1.006,0.38 -1.387,0 l -3.688,-3.68 0,3.091 c 0,0.543 -0.434,0.98 -0.979,0.98 -0.538,0 -0.979,-0.437 -0.979,-0.98 l 0,-5.053 -5.858,-5.861 0,8.285 3.572,3.573 c 0.383,0.382 0.383,1.004 0,1.386 -0.383,0.387 -1.003,0.387 -1.385,0 l -2.187,-2.183 0,5.206 c 0,0.538 -0.443,0.981 -0.978,0.981 -0.544,0 -0.985,-0.443 -0.985,-0.981 l 0,-5.206 -2.187,2.183 c -0.382,0.387 -1.004,0.387 -1.391,0 -0.379,-0.382 -0.379,-1.004 0,-1.386 l 3.578,-3.573 0,-8.285 -5.858,5.861 0,5.055 c 0,0.541 -0.44,0.981 -0.979,0.981 -0.542,0 -0.983,-0.44 -0.983,-0.981 l 0,-3.093 -3.686,3.68 c -0.385,0.38 -0.998,0.38 -1.386,0 -0.381,-0.385 -0.381,-1.001 0,-1.39 l 3.68,-3.682 -3.091,0 c -0.538,0 -0.977,-0.439 -0.977,-0.975 0,-0.547 0.439,-0.984 0.977,-0.984 l 5.057,0 5.857,-5.861 -8.286,0 -3.572,3.574 c -0.385,0.385 -1.002,0.385 -1.388,0 -0.383,-0.384 -0.379,-1.003 0,-1.384 L -32.06,0 -37.271,0 c -0.541,0 -0.98,-0.441 -0.98,-0.982 0,-0.539 0.439,-0.979 0.98,-0.979 l 5.211,0 -2.192,-2.185 c -0.379,-0.386 -0.383,-1.008 0,-1.387 0.192,-0.195 0.442,-0.286 0.695,-0.286 0.249,0 0.502,0.091 0.693,0.286 l 3.572,3.572 8.286,0 -5.857,-5.857 -5.057,0 c -0.538,0 -0.977,-0.439 -0.977,-0.983 0,-0.537 0.439,-0.976 0.977,-0.976 l 3.091,0 -3.68,-3.684 c -0.381,-0.385 -0.381,-1.002 0,-1.391 0.197,-0.185 0.444,-0.287 0.697,-0.287 0.25,0 0.5,0.102 0.689,0.287 l 3.686,3.688 0,-3.097 c 0,-0.54 0.441,-0.981 0.983,-0.981 0.539,0 0.979,0.441 0.979,0.981 l 0,5.058 5.858,5.857 0,-8.289 -3.578,-3.57 c -0.379,-0.385 -0.379,-1.004 0,-1.389 0.193,-0.187 0.449,-0.287 0.698,-0.287 0.253,0 0.502,0.1 0.693,0.287 l 2.187,2.188 0,-5.205 c 0,-0.547 0.441,-0.982 0.985,-0.982 0.535,0 0.978,0.435 0.978,0.982 l 0,5.205 2.187,-2.188 c 0.192,-0.187 0.441,-0.287 0.694,-0.287 0.252,0 0.503,0.1 0.691,0.287 0.383,0.385 0.383,1.004 0,1.389 l -3.572,3.57 0,8.289 5.858,-5.857 0,-5.058 c 0,-0.54 0.441,-0.981 0.979,-0.981 0.545,0 0.979,0.441 0.979,0.981 l 0,3.097 3.688,-3.688 c 0.19,-0.185 0.44,-0.287 0.686,-0.287 0.253,0 0.505,0.102 0.701,0.287 0.382,0.389 0.382,1.006 0,1.391 l -3.687,3.684 3.099,0 c 0.539,0 0.978,0.439 0.978,0.976 0,0.544 -0.439,0.983 -0.978,0.983 l -5.057,0 -5.861,5.857 8.287,0 3.576,-3.572 c 0.188,-0.195 0.437,-0.286 0.687,-0.286 0.257,0 0.505,0.091 0.701,0.286 0.378,0.379 0.378,1.001 0,1.387 l -2.193,2.185 5.211,0 c 0.54,0 0.978,0.44 0.978,0.979 C 0.978,-0.441 0.54,0 0,0" />
    </g>
  </g>
</svg>
