<?xml version="1.0" encoding="UTF-8" standalone="no"?>
<!-- Created with Inkscape (http://www.inkscape.org/) -->

<svg
   xmlns:dc="http://purl.org/dc/elements/1.1/"
   xmlns:cc="http://creativecommons.org/ns#"
   xmlns:rdf="http://www.w3.org/1999/02/22-rdf-syntax-ns#"
   xmlns:svg="http://www.w3.org/2000/svg"
   xmlns="http://www.w3.org/2000/svg"
   xmlns:sodipodi="http://sodipodi.sourceforge.net/DTD/sodipodi-0.dtd"
   xmlns:inkscape="http://www.inkscape.org/namespaces/inkscape"
   width="75"
   height="75"
   viewBox="0 0 75 75"
   id="svg7358"
   version="1.1"
   inkscape:version="0.91 r13725"
   sodipodi:docname="tstorms.svg">
  <defs
     id="defs7360" />
  <sodipodi:namedview
     id="base"
     pagecolor="#001433"
     bordercolor="#666666"
     borderopacity="1.0"
     inkscape:pageopacity="1"
     inkscape:pageshadow="2"
     inkscape:zoom="1.4"
     inkscape:cx="145.84477"
     inkscape:cy="73.321223"
     inkscape:document-units="px"
     inkscape:current-layer="layer1"
     showgrid="false"
     units="px"
     inkscape:window-width="1366"
     inkscape:window-height="706"
     inkscape:window-x="-8"
     inkscape:window-y="-8"
     inkscape:window-maximized="1" />
  <metadata
     id="metadata7363">
    <rdf:RDF>
      <cc:Work
         rdf:about="">
        <dc:format>image/svg+xml</dc:format>
        <dc:type
           rdf:resource="http://purl.org/dc/dcmitype/StillImage" />
        <dc:title></dc:title>
      </cc:Work>
    </rdf:RDF>
  </metadata>
  <g
     inkscape:label="Layer 1"
     inkscape:groupmode="layer"
     id="layer1"
     transform="translate(0,-977.36216)">
    <g
       id="g13695"
       transform="translate(97.5,71.07143)">
      <g
         id="g5670"
         transform="matrix(1.25,0,0,-1.25,-76.563,968.9617)">
        <path
           d="M 0,0 C -0.191,0 -0.391,0.043 -0.567,0.129 -1.231,0.443 -1.507,1.24 -1.192,1.898 L 1.578,7.68 C 1.897,8.338 2.681,8.619 3.348,8.299 4.008,7.982 4.288,7.193 3.967,6.533 L 1.202,0.752 C 0.974,0.279 0.492,0 0,0"
           style="fill:#1b86d0;fill-opacity:1;fill-rule:nonzero;stroke:none"
           id="path5672"
           inkscape:connector-curvature="0" />
      </g>
      <g
         id="g5674"
         transform="matrix(1.25,0,0,-1.25,-84.782,968.9617)">
        <path
           d="M 0,0 C -0.189,0 -0.386,0.043 -0.574,0.129 -1.229,0.443 -1.504,1.24 -1.189,1.898 L 1.581,7.68 C 1.893,8.338 2.688,8.619 3.353,8.299 4.007,7.982 4.288,7.193 3.967,6.533 L 1.198,0.752 C 0.969,0.279 0.495,0 0,0"
           style="fill:#1b86d0;fill-opacity:1;fill-rule:nonzero;stroke:none"
           id="path5676"
           inkscape:connector-curvature="0" />
      </g>
      <g
         id="g5678"
         transform="matrix(1.25,0,0,-1.25,-42.655625,968.9617)">
        <path
           d="M 0,0 C -0.199,0 -0.391,0.043 -0.578,0.129 -1.234,0.443 -1.516,1.24 -1.199,1.898 L 1.572,7.68 C 1.889,8.338 2.68,8.619 3.342,8.299 4.004,7.982 4.281,7.193 3.965,6.533 L 1.187,0.752 C 0.965,0.279 0.492,0 0,0"
           style="fill:#1b86d0;fill-opacity:1;fill-rule:nonzero;stroke:none"
           id="path5680"
           inkscape:connector-curvature="0" />
      </g>
      <g
         id="g5682"
         transform="matrix(1.25,0,0,-1.25,-50.880625,968.9617)">
        <path
           d="M 0,0 C -0.189,0 -0.385,0.043 -0.572,0.129 -1.23,0.443 -1.512,1.24 -1.189,1.898 L 1.578,7.68 C 1.896,8.338 2.688,8.619 3.35,8.299 4.012,7.982 4.285,7.193 3.971,6.533 L 1.195,0.752 C 0.973,0.279 0.496,0 0,0"
           style="fill:#1b86d0;fill-opacity:1;fill-rule:nonzero;stroke:none"
           id="path5684"
           inkscape:connector-curvature="0" />
      </g>
      <g
         id="g5686"
         transform="matrix(1.25,0,0,-1.25,-66.535,976.7644)">
        <path
           d="M 0,0 C -0.232,0 -0.469,0.066 -0.687,0.197 -1.31,0.57 -1.508,1.385 -1.131,2.012 l 7.91,13.062 -8.268,0 9.329,13.244 c 0.426,0.596 1.246,0.743 1.848,0.321 0.597,-0.424 0.738,-1.252 0.318,-1.852 l -6.389,-9.06 7.871,0 L 1.133,0.641 C 0.884,0.229 0.451,0 0,0"
           style="fill:#f5a714;fill-opacity:1;fill-rule:nonzero;stroke:none"
           id="path5688"
           inkscape:connector-curvature="0" />
      </g>
      <g
         id="g5690"
         transform="matrix(1.25,0,0,-1.25,-37.548125,930.56331)">
        <path
           d="m 0,0 c 0.146,0.801 0.223,1.613 0.223,2.436 0,7.371 -5.994,13.361 -13.366,13.361 -4.533,0 -8.701,-2.272 -11.167,-6.012 -1.146,0.5 -2.384,0.764 -3.648,0.764 -5.105,0 -9.264,-4.156 -9.264,-9.27 0,-0.097 0.003,-0.201 0.003,-0.302 -4.121,-1.356 -7.005,-5.25 -7.005,-9.68 0,-5.617 4.574,-10.186 10.19,-10.186 l 5.023,0 c 1.589,0 1.497,2.645 0,2.645 l -5.023,0 c -4.16,0 -7.539,3.389 -7.539,7.541 0,3.584 2.544,6.687 6.052,7.389 l 1.253,0.246 -0.207,1.267 c -0.066,0.397 -0.094,0.75 -0.094,1.08 0,3.647 2.963,6.619 6.611,6.619 1.219,0 2.413,-0.345 3.465,-0.99 l 1.203,-0.74 0.665,1.25 c 1.857,3.539 5.494,5.732 9.482,5.732 5.911,0 10.717,-4.806 10.717,-10.714 0,-1.131 -0.178,-2.241 -0.517,-3.309 l -0.608,-1.859 2.059,0.136 c 0.103,0.008 0.203,0.016 0.316,0.016 3.762,0 6.834,-3.061 6.834,-6.828 0,-3.766 -3.072,-6.83 -6.834,-6.836 l -5.73,0 c -1.719,0 -1.985,-2.645 0,-2.645 l 5.73,0 c 5.229,0 9.477,4.254 9.477,9.481 C 8.301,-4.578 4.672,-0.582 0,0"
           style="fill:#ffffff;fill-opacity:1;fill-rule:nonzero;stroke:none"
           id="path5692"
           inkscape:connector-curvature="0" />
      </g>
    </g>
  </g>
</svg>
