<?xml version="1.0" encoding="UTF-8" standalone="no"?>
<!-- Created with Inkscape (http://www.inkscape.org/) -->

<svg
   xmlns:dc="http://purl.org/dc/elements/1.1/"
   xmlns:cc="http://creativecommons.org/ns#"
   xmlns:rdf="http://www.w3.org/1999/02/22-rdf-syntax-ns#"
   xmlns:svg="http://www.w3.org/2000/svg"
   xmlns="http://www.w3.org/2000/svg"
   xmlns:sodipodi="http://sodipodi.sourceforge.net/DTD/sodipodi-0.dtd"
   xmlns:inkscape="http://www.inkscape.org/namespaces/inkscape"
   width="75"
   height="75"
   viewBox="0 0 75 75"
   id="svg7358"
   version="1.1"
   inkscape:version="0.91 r13725"
   sodipodi:docname="unknown.svg">
  <defs
     id="defs7360" />
  <sodipodi:namedview
     id="base"
     pagecolor="#001433"
     bordercolor="#666666"
     borderopacity="1.0"
     inkscape:pageopacity="1"
     inkscape:pageshadow="2"
     inkscape:zoom="1.4"
     inkscape:cx="145.84477"
     inkscape:cy="73.321223"
     inkscape:document-units="px"
     inkscape:current-layer="layer1"
     showgrid="false"
     units="px"
     inkscape:window-width="1366"
     inkscape:window-height="706"
     inkscape:window-x="-8"
     inkscape:window-y="-8"
     inkscape:window-maximized="1" />
  <metadata
     id="metadata7363">
    <rdf:RDF>
      <cc:Work
         rdf:about="">
        <dc:format>image/svg+xml</dc:format>
        <dc:type
           rdf:resource="http://purl.org/dc/dcmitype/StillImage" />
        <dc:title></dc:title>
      </cc:Work>
    </rdf:RDF>
  </metadata>
  <g
     inkscape:label="Layer 1"
     inkscape:groupmode="layer"
     id="layer1"
     transform="translate(0,-977.36216)">
    <g
       id="g13745"
       transform="translate(-117.5,-76.071465)">
      <g
         id="g6110"
         transform="matrix(1.25,0,0,-1.25,142.50438,1079.1355)">
        <path
           d="m 0,0 c -3.648,0 -6.611,-2.965 -6.611,-6.615 0,-0.328 0.028,-0.684 0.094,-1.074 l 0.207,-1.266 -1.252,-0.248 c -3.509,-0.703 -6.053,-3.815 -6.053,-7.389 0,-4.16 3.379,-7.541 7.539,-7.541 l 32.858,0 c 3.762,0.006 6.834,3.065 6.834,6.834 0,3.764 -3.072,6.83 -6.834,6.83 -0.115,0 -0.219,-0.01 -0.328,-0.019 l -2.047,-0.137 0.608,1.863 c 0.339,1.065 0.517,2.176 0.517,3.303 0,5.908 -4.806,10.715 -10.717,10.715 -3.988,0 -7.625,-2.193 -9.482,-5.733 L 4.668,-1.727 3.463,-0.982 C 2.413,-0.338 1.219,0 0,0 m 26.782,-26.783 -32.858,0 c -5.616,0 -10.19,4.57 -10.19,10.191 0,4.424 2.884,8.322 7.005,9.674 0,0.1 -0.003,0.203 -0.003,0.303 0,5.103 4.159,9.269 9.264,9.269 1.264,0 2.502,-0.263 3.648,-0.761 2.466,3.742 6.634,6.013 11.167,6.013 7.372,0 13.366,-5.998 13.366,-13.365 0,-0.824 -0.077,-1.637 -0.223,-2.434 4.672,-0.584 8.301,-4.582 8.301,-9.406 0,-5.23 -4.248,-9.484 -9.477,-9.484"
           style="fill:#ffffff;fill-opacity:1;fill-rule:nonzero;stroke:none"
           id="path6112"
           inkscape:connector-curvature="0" />
      </g>
      <g
         id="g6114"
         transform="matrix(1.25,0,0,-1.25,156.214,1099.4993)">
        <path
           d="m 0,0 c -0.734,0 -1.324,0.594 -1.324,1.328 0,1.877 0.107,3.231 1.558,4.848 0.28,0.314 0.588,0.623 0.897,0.935 1.18,1.186 1.89,1.983 1.844,3.051 -0.051,1.151 -0.711,1.901 -1.955,2.242 -1.032,0.27 -2.303,-0.091 -3.018,-0.879 C -2.373,11.098 -2.611,10.393 -2.574,9.762 -2.521,9.035 -3.08,8.404 -3.809,8.359 -4.544,8.314 -5.17,8.869 -5.212,9.596 c -0.084,1.338 0.399,2.756 1.253,3.699 1.383,1.533 3.656,2.203 5.666,1.662 C 4.051,14.322 5.516,12.576 5.619,10.279 5.729,7.98 4.217,6.461 3.01,5.242 2.73,4.965 2.461,4.693 2.207,4.408 1.391,3.502 1.324,2.91 1.324,1.328 1.324,0.594 0.73,0 0,0"
           style="fill:#ffffff;fill-opacity:1;fill-rule:nonzero;stroke:none"
           id="path6116"
           inkscape:connector-curvature="0" />
      </g>
      <g
         id="g6118"
         transform="matrix(1.25,0,0,-1.25,157.95238,1104.2112)">
        <path
           d="m 0,0 c 0,-0.756 -0.607,-1.369 -1.361,-1.369 -0.756,0 -1.366,0.613 -1.366,1.369 0,0.752 0.61,1.365 1.366,1.365 C -0.607,1.365 0,0.752 0,0"
           style="fill:#ffffff;fill-opacity:1;fill-rule:nonzero;stroke:none"
           id="path6120"
           inkscape:connector-curvature="0" />
      </g>
      <g
         id="g6122"
         transform="matrix(1.25,0,0,-1.25,156.25063,1103.1712)">
        <path
           d="m 0,0 c -0.463,0 -0.836,-0.373 -0.836,-0.832 0,-0.465 0.373,-0.836 0.836,-0.836 0.463,0 0.836,0.371 0.836,0.836 C 0.836,-0.373 0.463,0 0,0 m 0,-2.725 c -1.043,0 -1.891,0.846 -1.891,1.893 0,1.039 0.848,1.894 1.891,1.894 1.039,0 1.898,-0.855 1.898,-1.894 0,-1.047 -0.859,-1.893 -1.898,-1.893"
           style="fill:#ffffff;fill-opacity:1;fill-rule:nonzero;stroke:none"
           id="path6124"
           inkscape:connector-curvature="0" />
      </g>
    </g>
  </g>
</svg>
